<svg width="533" height="374" viewBox="0 0 533 374" fill="none" xmlns="http://www.w3.org/2000/svg">
  <path d="M264.043 373.997C404.328 373.997 518.051 367.357 518.051 359.167C518.051 350.977 404.328 344.337 264.043 344.337C123.758 344.337 10.035 350.977 10.035 359.167C10.035 367.357 123.758 373.997 264.043 373.997Z" fill="#1D1B20"/>
  <path d="M111.316 356.324V360.372C111.316 361.383 111.718 362.353 112.433 363.068C113.148 363.783 114.117 364.184 115.128 364.184H260.545C261.474 364.181 262.364 363.81 263.02 363.152C263.675 362.493 264.043 361.602 264.043 360.674V356.743C264.043 355.816 263.675 354.926 263.019 354.27C262.363 353.614 261.473 353.245 260.545 353.245H224.388C223.42 353.25 222.462 353.043 221.583 352.637C220.704 352.232 219.925 351.638 219.3 350.899C218.675 350.159 218.221 349.291 217.968 348.357C217.715 347.422 217.671 346.444 217.837 345.49L230.519 272.126H147.945L112.574 350.39C111.733 352.254 111.304 354.279 111.316 356.324Z" fill="#263238"/>
  <path opacity="0.2" d="M264.043 356.77V360.7C264.045 361.16 263.956 361.615 263.781 362.04C263.605 362.466 263.348 362.852 263.023 363.177C262.697 363.502 262.311 363.76 261.886 363.935C261.461 364.11 261.005 364.199 260.545 364.198H115.128C114.121 364.194 113.155 363.793 112.441 363.082C111.727 362.371 111.323 361.406 111.316 360.398V356.337C111.316 355.262 111.434 354.19 111.67 353.141C111.889 352.243 112.187 351.366 112.561 350.521L147.932 272.271H230.545L217.864 345.555C217.779 345.987 217.748 346.427 217.772 346.866C217.792 348.36 218.323 349.802 219.277 350.953C220.23 352.104 221.548 352.894 223.012 353.193C223.442 353.291 223.881 353.339 224.322 353.337H260.493C261.418 353.323 262.312 353.677 262.977 354.32C263.643 354.963 264.026 355.844 264.043 356.77Z" fill="white"/>
  <path d="M107.897 350.481L143.269 272.218H147.945L112.574 350.481C111.728 352.314 111.281 354.306 111.264 356.324V360.372C111.264 361.383 111.665 362.353 112.38 363.068C113.095 363.783 114.065 364.185 115.076 364.185H110.399C109.388 364.185 108.418 363.783 107.703 363.068C106.988 362.353 106.587 361.383 106.587 360.372V356.324C106.604 354.306 107.051 352.314 107.897 350.481Z" fill="#263238"/>
  <path opacity="0.2" d="M147.945 272.218H230.545L227.309 290.926H139.496L147.945 272.218Z" fill="black"/>
  <path opacity="0.3" d="M136.443 356.796V360.516C136.447 361.488 136.834 362.419 137.521 363.106C138.208 363.794 139.139 364.181 140.111 364.185H260.558C261.019 364.185 261.475 364.094 261.9 363.917C262.325 363.74 262.712 363.482 263.037 363.155C263.361 362.829 263.619 362.442 263.794 362.016C263.969 361.59 264.058 361.134 264.056 360.674V356.743C264.056 355.816 263.688 354.926 263.032 354.27C262.376 353.614 261.486 353.246 260.558 353.246H224.388C223.947 353.241 223.508 353.193 223.078 353.101H140.111C139.627 353.101 139.148 353.197 138.701 353.383C138.255 353.569 137.849 353.842 137.508 354.185C137.167 354.528 136.898 354.936 136.715 355.384C136.532 355.832 136.44 356.312 136.443 356.796Z" fill="white"/>
  <path opacity="0.1" d="M111.683 353.128H223.038C221.574 352.829 220.256 352.038 219.303 350.888C218.35 349.737 217.819 348.294 217.798 346.8H114.526L111.683 353.128Z" fill="black"/>
  <path d="M20.6859 280.445H373.093C376.51 280.442 379.785 279.082 382.2 276.665C384.615 274.248 385.971 270.971 385.971 267.554V12.8779C385.971 9.46249 384.614 6.18695 382.199 3.77188C379.784 1.3568 376.508 6.66421e-06 373.093 6.66421e-06H20.6859C18.9937 -0.00171486 17.3177 0.330112 15.7537 0.976517C14.1898 1.62292 12.7686 2.57124 11.5714 3.76724C10.3742 4.96324 9.42441 6.38347 8.77641 7.94674C8.12842 9.51002 7.79489 11.1857 7.79489 12.8779V267.554C7.79489 270.973 9.15305 274.252 11.5706 276.67C13.9881 279.087 17.267 280.445 20.6859 280.445Z" fill="#4088FF"/>
  <path d="M385.997 240.017V267.528C385.997 270.945 384.641 274.222 382.226 276.639C379.811 279.056 376.536 280.416 373.119 280.419H20.7121C17.2932 280.419 14.0143 279.061 11.5968 276.643C9.17924 274.226 7.82108 270.947 7.82108 267.528V240.017H385.997Z" fill="#4088FF"/>
  <path opacity="0.6" d="M385.997 240.017V267.528C385.997 270.945 384.641 274.222 382.226 276.639C379.811 279.056 376.536 280.416 373.119 280.419H20.7121C17.2932 280.419 14.0143 279.061 11.5968 276.643C9.17924 274.226 7.82108 270.947 7.82108 267.528V240.017H385.997Z" fill="white"/>
  <path d="M20.9086 232.235H372.883C374.735 232.235 376.511 231.499 377.821 230.19C379.13 228.88 379.866 227.104 379.866 225.252V14.7644C379.868 13.8469 379.688 12.9382 379.338 12.0902C378.988 11.2423 378.473 10.4718 377.825 9.82307C377.176 9.17433 376.405 8.66006 375.558 8.30977C374.71 7.95947 373.801 7.78002 372.883 7.78175H20.9086C19.0567 7.78175 17.2806 8.51743 15.9711 9.82693C14.6616 11.1364 13.926 12.9125 13.926 14.7644V225.252C13.926 227.104 14.6616 228.88 15.9711 230.19C17.2806 231.499 19.0567 232.235 20.9086 232.235Z" fill="#4088FF"/>
  <path opacity="0.8" d="M20.9086 232.235H372.883C374.735 232.235 376.511 231.499 377.821 230.19C379.13 228.88 379.866 227.104 379.866 225.252V14.7644C379.868 13.8469 379.688 12.9382 379.338 12.0902C378.988 11.2423 378.473 10.4718 377.825 9.82307C377.176 9.17433 376.405 8.66006 375.558 8.30977C374.71 7.95947 373.801 7.78002 372.883 7.78175H20.9086C19.0567 7.78175 17.2806 8.51743 15.9711 9.82693C14.6616 11.1364 13.926 12.9125 13.926 14.7644V225.252C13.926 227.104 14.6616 228.88 15.9711 230.19C17.2806 231.499 19.0567 232.235 20.9086 232.235Z" fill="white"/>
  <path opacity="0.2" d="M104.792 19.1663H40.1927V63.6429H104.792V19.1663Z" fill="black"/>
  <path d="M104.792 19.1663H40.1927V23.2406H104.792V19.1663Z" fill="#4088FF"/>
  <path d="M52.0226 43.7693L62.5948 49.6253C62.9934 49.8143 63.3498 50.0817 63.6429 50.4113C63.828 50.6703 63.9203 50.9842 63.9049 51.3021C63.9081 51.5232 63.8668 51.7426 63.7835 51.9474C63.7002 52.1522 63.5767 52.3382 63.4202 52.4943C63.2716 52.6508 63.0928 52.7756 62.8947 52.8612C62.6966 52.9467 62.4831 52.9913 62.2673 52.9921C61.8005 52.9366 61.3524 52.7753 60.9573 52.5205L47.3326 44.9352C47.1146 44.8266 46.9312 44.6593 46.803 44.4522C46.6748 44.2451 46.6069 44.0063 46.6069 43.7627C46.6069 43.5191 46.6748 43.2804 46.803 43.0733C46.9312 42.8662 47.1146 42.6989 47.3326 42.5902L60.9835 35.0705C61.3818 34.8247 61.8288 34.6682 62.2935 34.6119C62.5106 34.6093 62.7259 34.6509 62.9264 34.7343C63.1269 34.8176 63.3082 34.9409 63.4595 35.0967C63.6156 35.2504 63.739 35.434 63.8223 35.6367C63.9056 35.8393 63.9471 36.0567 63.9442 36.2757C63.9617 36.5939 63.8692 36.9085 63.6822 37.1666C63.3869 37.4972 63.0311 37.7684 62.6341 37.9657L52.0226 43.7693Z" fill="white"/>
  <path d="M79.2064 32.8565L68.7259 55.3765C68.5678 55.7909 68.322 56.1663 68.0054 56.4769C67.7229 56.7007 67.37 56.8168 67.0097 56.8044C66.7958 56.807 66.5835 56.7666 66.3855 56.6855C66.1875 56.6045 66.0077 56.4846 65.8569 56.3328C65.7046 56.1955 65.5828 56.0278 65.4993 55.8405C65.4158 55.6532 65.3725 55.4505 65.3722 55.2454C65.4142 54.7885 65.5432 54.3439 65.7521 53.9354L76.2326 31.4285C76.3948 31.0231 76.6352 30.6537 76.94 30.3411C77.2515 30.1007 77.6396 29.9814 78.0323 30.0055C78.4251 30.0296 78.7957 30.1954 79.0754 30.4722C79.2274 30.6069 79.3491 30.7723 79.4326 30.9575C79.5162 31.1426 79.5596 31.3433 79.5602 31.5464C79.5299 32.0022 79.4097 32.4474 79.2064 32.8565Z" fill="white"/>
  <path d="M92.3464 43.7693L81.7873 37.9133C81.3845 37.7192 81.0239 37.4476 80.7261 37.1142C80.5446 36.8534 80.4527 36.5408 80.4641 36.2234C80.4624 36.0055 80.5038 35.7894 80.586 35.5876C80.6681 35.3859 80.7895 35.2023 80.9429 35.0477C81.0964 34.893 81.2789 34.7702 81.48 34.6865C81.6812 34.6027 81.8969 34.5596 82.1148 34.5596C82.58 34.6138 83.0274 34.7704 83.4248 35.0181L97.0495 42.5903C97.2675 42.6989 97.4509 42.8662 97.5791 43.0733C97.7073 43.2804 97.7752 43.5192 97.7752 43.7628C97.7752 44.0063 97.7073 44.2451 97.5791 44.4522C97.4509 44.6593 97.2675 44.8266 97.0495 44.9353L83.4248 52.5205C83.0303 52.7766 82.582 52.938 82.1148 52.9922C81.8955 52.993 81.6786 52.948 81.4778 52.86C81.277 52.772 81.0968 52.643 80.9488 52.4812C80.7939 52.3266 80.6713 52.1428 80.588 51.9404C80.5048 51.738 80.4627 51.521 80.4641 51.3022C80.4546 50.9849 80.5463 50.6729 80.7261 50.4113C81.0218 50.0789 81.3831 49.8113 81.7873 49.6253L92.3464 43.7693Z" fill="white"/>
  <path d="M12.891 6.66421e-06H20.6859C18.9936 -0.00171486 17.3176 0.330112 15.7537 0.976517C14.1898 1.62292 12.7686 2.57124 11.5714 3.76724C10.3742 4.96324 9.4244 6.38347 8.7764 7.94674C8.12841 9.51002 7.79488 11.1857 7.79488 12.8779V267.554C7.79488 270.973 9.15304 274.252 11.5706 276.67C13.9881 279.087 17.267 280.445 20.6859 280.445H12.891C9.47318 280.442 6.19631 279.083 3.77952 276.666C1.36274 274.249 0.00346814 270.972 0 267.554V12.8779C0.0034722 9.46129 1.36316 6.18578 3.78032 3.77108C6.19748 1.35637 9.47438 4.89988e-06 12.891 6.66421e-06Z" fill="#4088FF"/>
  <path d="M12.891 6.66421e-06H20.6859C18.9936 -0.00171486 17.3176 0.330112 15.7537 0.976517C14.1898 1.62292 12.7686 2.57124 11.5714 3.76724C10.3742 4.96324 9.4244 6.38347 8.7764 7.94674C8.12841 9.51002 7.79488 11.1857 7.79488 12.8779V267.554C7.79488 270.973 9.15304 274.252 11.5706 276.67C13.9881 279.087 17.267 280.445 20.6859 280.445H12.891C9.47318 280.442 6.19631 279.083 3.77952 276.666C1.36274 274.249 0.00346814 270.972 0 267.554V12.8779C0.0034722 9.46129 1.36316 6.18578 3.78032 3.77108C6.19748 1.35637 9.47438 4.89988e-06 12.891 6.66421e-06Z" fill="#263238"/>
  <g opacity="0.2">
    <path d="M163.692 34.4547C162.706 34.4564 161.729 34.2634 160.818 33.8868C159.906 33.5102 159.078 32.9573 158.381 32.2599C157.683 31.5625 157.13 30.7343 156.754 29.8228C156.377 28.9112 156.184 27.9343 156.186 26.948C156.186 25.9629 156.38 24.9874 156.757 24.0773C157.135 23.1673 157.688 22.3407 158.385 21.6447C159.082 20.9486 159.91 20.397 160.821 20.0211C161.731 19.6453 162.707 19.4528 163.692 19.4545C165.68 19.4545 167.586 20.244 168.991 21.6493C170.396 23.0546 171.186 24.9606 171.186 26.948C171.188 27.9332 170.995 28.909 170.619 29.8197C170.243 30.7304 169.692 31.558 168.996 32.2553C168.3 32.9525 167.473 33.5056 166.563 33.883C165.653 34.2605 164.678 34.4547 163.692 34.4547Z" fill="black"/>
    <path d="M163.692 73.285C162.706 73.2867 161.729 73.0938 160.818 72.7171C159.906 72.3405 159.078 71.7876 158.381 71.0902C157.683 70.3928 157.13 69.5646 156.754 68.6531C156.377 67.7416 156.184 66.7646 156.186 65.7784C156.186 64.7932 156.38 63.8177 156.757 62.9077C157.135 61.9976 157.688 61.171 158.385 60.475C159.082 59.779 159.91 59.2273 160.821 58.8515C161.731 58.4756 162.707 58.2831 163.692 58.2848C165.68 58.2848 167.586 59.0743 168.991 60.4796C170.396 61.8849 171.186 63.7909 171.186 65.7784C171.188 66.7635 170.995 67.7394 170.619 68.65C170.243 69.5607 169.692 70.3884 168.996 71.0856C168.3 71.7828 167.473 72.336 166.563 72.7134C165.653 73.0908 164.678 73.285 163.692 73.285Z" fill="black"/>
    <path d="M163.692 112.115C162.706 112.117 161.729 111.924 160.818 111.547C159.906 111.171 159.078 110.618 158.381 109.921C157.683 109.223 157.13 108.395 156.754 107.483C156.377 106.572 156.184 105.595 156.186 104.609C156.186 103.624 156.38 102.648 156.757 101.738C157.135 100.828 157.688 100.001 158.385 99.3053C159.082 98.6093 159.91 98.0576 160.821 97.6818C161.731 97.306 162.707 97.1134 163.692 97.1151C165.68 97.1151 167.586 97.9046 168.991 99.3099C170.396 100.715 171.186 102.621 171.186 104.609C171.188 105.594 170.995 106.57 170.619 107.48C170.243 108.391 169.692 109.219 168.996 109.916C168.3 110.613 167.473 111.166 166.563 111.544C165.653 111.921 164.678 112.115 163.692 112.115Z" fill="black"/>
    <path d="M163.692 148.705C162.707 148.707 161.731 148.514 160.821 148.139C159.91 147.763 159.082 147.211 158.385 146.515C157.688 145.819 157.135 144.992 156.757 144.082C156.38 143.172 156.186 142.197 156.186 141.212C156.186 140.227 156.38 139.251 156.757 138.341C157.135 137.431 157.688 136.604 158.385 135.908C159.082 135.212 159.91 134.661 160.821 134.285C161.731 133.909 162.707 133.716 163.692 133.718C165.68 133.718 167.586 134.508 168.991 135.913C170.396 137.318 171.186 139.224 171.186 141.212C171.186 143.199 170.396 145.105 168.991 146.51C167.586 147.916 165.68 148.705 163.692 148.705Z" fill="black"/>
    <path d="M163.692 187.536C162.707 187.537 161.731 187.345 160.821 186.969C159.91 186.593 159.082 186.041 158.385 185.345C157.688 184.649 157.135 183.823 156.757 182.913C156.38 182.003 156.186 181.027 156.186 180.042C156.186 178.051 156.977 176.142 158.384 174.734C159.792 173.326 161.701 172.535 163.692 172.535C165.681 172.539 167.587 173.331 168.992 174.739C170.397 176.146 171.186 178.053 171.186 180.042C171.186 182.029 170.396 183.936 168.991 185.341C167.586 186.746 165.68 187.536 163.692 187.536Z" fill="black"/>
    <path d="M163.692 226.34C162.707 226.341 161.731 226.149 160.821 225.773C159.91 225.397 159.082 224.845 158.385 224.149C157.688 223.453 157.135 222.627 156.757 221.717C156.38 220.807 156.186 219.831 156.186 218.846C156.186 217.86 156.38 216.884 156.757 215.973C157.134 215.063 157.687 214.235 158.384 213.538C159.081 212.841 159.909 212.288 160.82 211.911C161.73 211.534 162.707 211.339 163.692 211.339C165.681 211.343 167.587 212.135 168.992 213.543C170.397 214.95 171.186 216.857 171.186 218.846C171.186 220.833 170.396 222.739 168.991 224.145C167.586 225.55 165.68 226.34 163.692 226.34Z" fill="black"/>
    <path d="M245.231 20.6073H185.439V25.1008H245.231V20.6073Z" fill="black"/>
    <path d="M220.68 59.5293H199.379V64.0228H220.68V59.5293Z" fill="black"/>
    <path d="M313.367 103.207H292.066V107.7H313.367V103.207Z" fill="black"/>
    <path d="M220.68 137.871H199.379V142.365H220.68V137.871Z" fill="black"/>
    <path d="M251.388 137.871H230.086V142.365H251.388V137.871Z" fill="black"/>
    <path d="M284.506 103.207H230.086V107.7H284.506V103.207Z" fill="black"/>
    <path d="M297.62 137.871H261.79V142.365H297.62V137.871Z" fill="black"/>
    <path d="M282.974 221.113H261.672V225.606H282.974V221.113Z" fill="black"/>
    <path d="M313.682 221.113H292.38V225.606H313.682V221.113Z" fill="black"/>
    <path d="M335.979 221.113H324.083V225.606H335.979V221.113Z" fill="black"/>
    <path d="M297.62 59.5293H231.344V64.0228H297.62V59.5293Z" fill="black"/>
    <path d="M251.388 178.417H230.086V182.911H251.388V178.417Z" fill="black"/>
    <path d="M270.816 178.417H258.502V182.911H270.816V178.417Z" fill="black"/>
    <path d="M315.018 178.417H280.236V182.911H315.018V178.417Z" fill="black"/>
  </g>
  <path opacity="0.5" d="M356.337 7.78174H342.804L295.092 232.235H308.638L356.337 7.78174Z" fill="white"/>
  <path opacity="0.5" d="M281.415 232.235L329.127 7.78174H278.257L230.545 232.235H281.415Z" fill="white"/>
  <path d="M510.335 35.1357H481.684L452.863 364.892H481.474C488.008 364.775 494.273 362.269 499.084 357.846C503.895 353.424 506.919 347.392 507.584 340.891L532.239 59.1492C532.575 56.0926 532.255 52.9997 531.302 50.0762C530.349 47.1527 528.785 44.4657 526.712 42.1939C524.64 39.9221 522.108 38.1177 519.284 36.9007C516.46 35.6837 513.41 35.0821 510.335 35.1357Z" fill="#263238"/>
  <path d="M475.579 364.905H357.673C354.598 364.961 351.547 364.36 348.722 363.144C345.897 361.928 343.364 360.123 341.291 357.851C339.219 355.579 337.654 352.891 336.702 349.967C335.75 347.042 335.432 343.948 335.769 340.891L360.411 59.1492C361.076 52.6471 364.1 46.6138 368.911 42.1892C373.721 37.7647 379.986 35.2555 386.521 35.1357H504.427C507.502 35.0823 510.553 35.684 513.377 36.9009C516.202 38.1178 518.735 39.9219 520.808 42.1934C522.881 44.4649 524.447 47.1517 525.401 50.0752C526.356 52.9987 526.677 56.0919 526.344 59.1492L501.689 340.891C501.026 347.395 498.004 353.43 493.192 357.855C488.381 362.28 482.115 364.788 475.579 364.905Z" fill="#4088FF"/>
  <path d="M503.942 40.638H473.313C472.315 40.6559 471.352 41.0094 470.579 41.6417C469.807 42.2739 469.27 43.148 469.055 44.1228L468.845 45.0922C468.317 47.4709 467.004 49.6027 465.117 51.1448C463.23 52.6869 460.88 53.5497 458.444 53.5946H429.308C427.001 53.6403 424.77 52.7721 423.101 51.1793C421.432 49.5865 420.461 47.3984 420.399 45.0922V44.1228C420.375 43.1765 419.977 42.2783 419.292 41.6251C418.607 40.9719 417.691 40.6169 416.744 40.638H386.076C381.039 40.7305 376.21 42.6649 372.502 46.0757C368.794 49.4865 366.465 54.1374 365.953 59.1492L341.337 340.891C341.08 343.247 341.327 345.63 342.063 347.882C342.798 350.135 344.005 352.205 345.602 353.955C347.2 355.704 349.151 357.094 351.328 358.031C353.504 358.968 355.855 359.431 358.224 359.39H476.129C481.164 359.297 485.991 357.365 489.699 353.957C493.406 350.549 495.737 345.901 496.252 340.891L520.816 59.1492C521.075 56.7939 520.829 54.4105 520.095 52.1574C519.361 49.9044 518.156 47.8334 516.56 46.0823C514.964 44.3311 513.013 42.9399 510.837 42.0012C508.662 41.0625 506.311 40.5978 503.942 40.638Z" fill="#4088FF"/>
  <path opacity="0.7" d="M503.942 40.638H473.313C472.315 40.6559 471.352 41.0094 470.579 41.6417C469.807 42.2739 469.27 43.148 469.055 44.1228L468.845 45.0922C468.317 47.4709 467.004 49.6027 465.117 51.1448C463.23 52.6869 460.88 53.5497 458.444 53.5946H429.308C427.001 53.6403 424.77 52.7721 423.101 51.1793C421.432 49.5865 420.461 47.3984 420.399 45.0922V44.1228C420.375 43.1765 419.977 42.2783 419.292 41.6251C418.607 40.9719 417.691 40.6169 416.744 40.638H386.076C381.039 40.7305 376.21 42.6649 372.502 46.0757C368.794 49.4865 366.465 54.1374 365.953 59.1492L341.337 340.891C341.08 343.247 341.327 345.63 342.063 347.882C342.798 350.135 344.005 352.205 345.602 353.955C347.2 355.704 349.151 357.094 351.328 358.031C353.504 358.968 355.855 359.431 358.224 359.39H476.129C481.164 359.297 485.991 357.365 489.699 353.957C493.406 350.549 495.737 345.901 496.252 340.891L520.816 59.1492C521.075 56.7939 520.829 54.4105 520.095 52.1574C519.361 49.9044 518.156 47.8334 516.56 46.0823C514.964 44.3311 513.013 42.9399 510.837 42.0012C508.662 41.0625 506.311 40.5978 503.942 40.638Z" fill="white"/>
  <g opacity="0.2">
    <path d="M437.613 43.7691C437.544 44.4017 437.246 44.9873 436.776 45.4164C436.306 45.8456 435.695 46.0889 435.059 46.101C434.76 46.1064 434.463 46.0481 434.188 45.9301C433.914 45.8121 433.667 45.6371 433.465 45.4165C433.263 45.196 433.111 44.9351 433.017 44.6511C432.924 44.367 432.892 44.0664 432.923 43.7691C432.99 43.1362 433.285 42.5492 433.752 42.1177C434.22 41.6862 434.829 41.4396 435.465 41.424C435.766 41.4187 436.064 41.4772 436.34 41.5959C436.617 41.7146 436.865 41.8906 437.068 42.1123C437.271 42.334 437.425 42.5964 437.519 42.882C437.613 43.1676 437.645 43.47 437.613 43.7691Z" fill="black"/>
    <path d="M454.408 41.4241H446.391C445.752 41.4365 445.14 41.6817 444.67 42.1135C444.2 42.5453 443.903 43.134 443.836 43.7691C443.807 44.066 443.84 44.3658 443.934 44.6489C444.029 44.932 444.181 45.1921 444.383 45.4121C444.584 45.6322 444.83 45.8073 445.104 45.926C445.378 46.0447 445.673 46.1043 445.972 46.101H454.002C454.636 46.0858 455.244 45.8411 455.711 45.4122C456.178 44.9834 456.474 44.3996 456.544 43.7691C456.577 43.4707 456.547 43.1686 456.454 42.883C456.362 42.5974 456.21 42.3348 456.007 42.1128C455.805 41.8908 455.558 41.7145 455.282 41.5957C455.007 41.477 454.709 41.4185 454.408 41.4241Z" fill="black"/>
  </g>
  <path d="M379.276 53.5421H381.752L381.962 51.066H379.486L379.276 53.5421Z" fill="#4088FF"/>
  <path d="M384.451 51.066L384.228 53.542H386.704L386.927 51.066L387.137 48.59H384.661L384.451 51.066Z" fill="#4088FF"/>
  <path d="M389.835 46.1141L389.626 48.5902L389.403 51.0662L389.18 53.5422H391.67L391.879 51.0662L392.102 48.5902L392.312 46.1141H389.835Z" fill="#4088FF"/>
  <path d="M496.422 46.2712L496.265 48.0922H495.047L494.732 51.7211H495.924L495.754 53.5421H506.667L507.309 46.2712H496.422ZM500.798 51.7211H497.156L497.47 48.0922H501.165L500.798 51.7211Z" fill="#4088FF"/>
  <g opacity="0.4">
    <path d="M429.399 53.5945L348.031 356.219C350.982 358.356 354.541 359.49 358.184 359.455H364.551L446.784 53.66L429.399 53.5945Z" fill="white"/>
    <path d="M503.942 40.6379H473.313C472.315 40.6558 471.352 41.0093 470.579 41.6416C469.807 42.2738 469.27 43.1479 469.055 44.1227L468.845 45.0922C468.326 47.4039 467.067 49.483 465.258 51.013C463.449 52.543 461.189 53.4402 458.823 53.5683L376.578 359.389H439.304L520.816 56.2277C520.556 51.9547 518.656 47.9471 515.512 45.0421C512.367 42.137 508.222 40.5591 503.942 40.6379Z" fill="white"/>
  </g>
  <g opacity="0.2">
    <path d="M387.189 97.9532H386.272C385.677 97.9516 385.089 97.8269 384.545 97.5869C384.001 97.3469 383.512 96.9968 383.11 96.5588C382.707 96.1207 382.4 95.6041 382.207 95.0414C382.014 94.4787 381.939 93.8822 381.988 93.2894L382.08 92.333C382.169 91.2615 382.657 90.2625 383.448 89.5345C384.239 88.8064 385.276 88.4025 386.351 88.4028H387.189C387.784 88.4023 388.373 88.5257 388.917 88.7651C389.462 89.0046 389.951 89.3548 390.352 89.7936C390.754 90.2323 391.06 90.75 391.251 91.3135C391.441 91.877 391.513 92.4741 391.46 93.0667L391.381 94.023C391.291 95.0801 390.813 96.0663 390.039 96.7919C389.265 97.5175 388.25 97.9312 387.189 97.9532Z" fill="black"/>
    <path d="M384.962 122.661H384.045C383.45 122.661 382.861 122.538 382.315 122.299C381.77 122.059 381.281 121.709 380.878 121.271C380.475 120.832 380.168 120.315 379.976 119.751C379.783 119.188 379.71 118.59 379.761 117.997L379.853 117.041C379.942 115.969 380.43 114.97 381.221 114.242C382.012 113.514 383.048 113.11 384.124 113.111H385.054C385.649 113.11 386.237 113.233 386.782 113.473C387.326 113.712 387.815 114.063 388.217 114.501C388.619 114.94 388.925 115.458 389.115 116.021C389.306 116.585 389.377 117.182 389.325 117.774L389.246 118.731C389.154 119.803 388.663 120.802 387.87 121.53C387.076 122.258 386.039 122.662 384.962 122.661Z" fill="black"/>
    <path d="M382.8 147.369H381.949C381.354 147.367 380.766 147.242 380.222 147.002C379.677 146.762 379.189 146.412 378.786 145.974C378.384 145.536 378.077 145.02 377.884 144.457C377.691 143.894 377.616 143.298 377.665 142.705L377.757 141.749C377.845 140.677 378.334 139.678 379.125 138.95C379.916 138.222 380.952 137.818 382.028 137.818H382.958C383.55 137.823 384.136 137.951 384.677 138.193C385.218 138.436 385.702 138.788 386.1 139.228C386.498 139.668 386.8 140.185 386.987 140.747C387.175 141.31 387.244 141.905 387.189 142.495L387.111 143.452C387.015 144.526 386.519 145.526 385.72 146.252C384.922 146.978 383.879 147.376 382.8 147.369Z" fill="black"/>
    <path d="M380.77 170.649H379.84C379.245 170.649 378.656 170.526 378.112 170.286C377.567 170.047 377.078 169.697 376.677 169.258C376.275 168.819 375.969 168.301 375.778 167.738C375.587 167.174 375.516 166.577 375.569 165.985L375.648 165.028C375.739 163.956 376.231 162.957 377.024 162.229C377.817 161.501 378.855 161.098 379.931 161.098H380.849C381.443 161.1 382.031 161.225 382.576 161.465C383.12 161.705 383.609 162.055 384.011 162.493C384.413 162.931 384.721 163.447 384.914 164.01C385.107 164.573 385.181 165.169 385.132 165.762L385.041 166.718C384.952 167.79 384.463 168.789 383.672 169.517C382.881 170.245 381.845 170.649 380.77 170.649Z" fill="black"/>
    <path d="M378.608 195.356H377.678C377.083 195.355 376.494 195.23 375.949 194.989C375.405 194.748 374.916 194.397 374.514 193.957C374.113 193.517 373.807 192.999 373.616 192.434C373.426 191.87 373.355 191.273 373.407 190.679L373.486 189.723C373.578 188.65 374.069 187.651 374.862 186.924C375.656 186.196 376.693 185.792 377.77 185.793H378.687C379.283 185.794 379.872 185.919 380.417 186.16C380.963 186.401 381.452 186.752 381.855 187.192C382.257 187.631 382.564 188.15 382.756 188.714C382.948 189.278 383.021 189.876 382.971 190.47L382.879 191.426C382.79 192.498 382.302 193.497 381.511 194.225C380.719 194.953 379.683 195.357 378.608 195.356Z" fill="black"/>
    <path d="M376.447 220.051H375.517C374.922 220.052 374.333 219.928 373.788 219.689C373.244 219.449 372.755 219.099 372.353 218.66C371.952 218.221 371.646 217.704 371.455 217.14C371.264 216.577 371.193 215.98 371.246 215.387L371.324 214.431C371.416 213.358 371.907 212.359 372.701 211.631C373.494 210.903 374.532 210.5 375.608 210.501H376.525C377.121 210.5 377.71 210.624 378.255 210.863C378.8 211.102 379.29 211.452 379.692 211.891C380.095 212.329 380.402 212.847 380.595 213.41C380.787 213.974 380.86 214.571 380.809 215.164L380.717 216.121C380.629 217.192 380.14 218.191 379.349 218.919C378.558 219.647 377.522 220.051 376.447 220.051Z" fill="black"/>
    <path d="M438.688 92.0186H400.644L400.892 89.1495H438.937L438.688 92.0186Z" fill="black"/>
    <path d="M420.897 116.779H407.351L407.6 113.923H421.146L420.897 116.779Z" fill="black"/>
    <path d="M477.439 144.565H463.88L464.142 141.709H477.688L477.439 144.565Z" fill="black"/>
    <path d="M416.535 166.614H402.989L403.237 163.758H416.784L416.535 166.614Z" fill="black"/>
    <path d="M436.081 166.614H422.522L422.771 163.758H436.33L436.081 166.614Z" fill="black"/>
    <path d="M459.072 144.565H424.461L424.709 141.709H459.321L459.072 144.565Z" fill="black"/>
    <path d="M465.492 166.614H442.697L442.945 163.758H465.741L465.492 166.614Z" fill="black"/>
    <path d="M451.526 219.566H437.98L438.229 216.71H451.775L451.526 219.566Z" fill="black"/>
    <path d="M471.073 219.566H457.513L457.775 216.71H471.321L471.073 219.566Z" fill="black"/>
    <path d="M485.261 219.566H477.688L477.937 216.71H485.509L485.261 219.566Z" fill="black"/>
    <path d="M469.854 116.779H427.683L427.932 113.923H470.103L469.854 116.779Z" fill="black"/>
    <path d="M433.814 192.409H420.268L420.517 189.553H434.063L433.814 192.409Z" fill="black"/>
    <path d="M446.181 192.409H438.347L438.596 189.553H446.43L446.181 192.409Z" fill="black"/>
    <path d="M474.295 192.409H452.168L452.417 189.553H474.544L474.295 192.409Z" fill="black"/>
  </g>
  <g opacity="0.2">
    <path d="M374.495 244.169H373.578C372.981 244.17 372.391 244.046 371.845 243.806C371.298 243.566 370.808 243.215 370.405 242.775C370.002 242.335 369.695 241.816 369.504 241.251C369.313 240.685 369.241 240.087 369.294 239.492L369.385 238.536C369.474 237.465 369.963 236.466 370.754 235.737C371.545 235.009 372.581 234.605 373.656 234.606H374.573C375.17 234.605 375.76 234.729 376.306 234.969C376.853 235.209 377.343 235.56 377.746 236C378.149 236.44 378.456 236.96 378.647 237.525C378.838 238.09 378.91 238.688 378.857 239.283L378.779 240.226C378.69 241.301 378.2 242.303 377.406 243.034C376.613 243.764 375.573 244.17 374.495 244.169Z" fill="black"/>
    <path d="M372.333 268.864H371.469C370.873 268.864 370.284 268.741 369.739 268.502C369.194 268.262 368.704 267.912 368.301 267.474C367.899 267.035 367.591 266.518 367.399 265.954C367.207 265.391 367.134 264.793 367.185 264.2L367.276 263.244C367.365 262.172 367.854 261.173 368.645 260.445C369.436 259.717 370.472 259.313 371.547 259.314H372.477C373.072 259.313 373.661 259.436 374.205 259.676C374.75 259.915 375.239 260.266 375.64 260.704C376.042 261.143 376.348 261.661 376.539 262.224C376.73 262.788 376.801 263.385 376.748 263.977L376.669 264.934C376.577 266.015 376.078 267.022 375.274 267.751C374.469 268.48 373.419 268.878 372.333 268.864Z" fill="black"/>
    <path d="M370.158 293.572H369.241C368.645 293.572 368.055 293.449 367.508 293.208C366.962 292.968 366.472 292.617 366.069 292.177C365.666 291.737 365.359 291.218 365.168 290.653C364.976 290.088 364.905 289.489 364.957 288.895L365.049 287.938C365.138 286.867 365.626 285.868 366.418 285.14C367.209 284.412 368.245 284.008 369.32 284.008H370.25C370.846 284.01 371.434 284.135 371.979 284.376C372.524 284.617 373.012 284.968 373.414 285.408C373.815 285.848 374.121 286.366 374.312 286.93C374.502 287.494 374.574 288.092 374.521 288.685L374.442 289.642C374.35 290.714 373.859 291.713 373.066 292.441C372.273 293.169 371.235 293.572 370.158 293.572Z" fill="black"/>
    <path d="M368.141 316.852H367.211C366.616 316.852 366.027 316.729 365.483 316.489C364.938 316.25 364.449 315.9 364.048 315.461C363.646 315.022 363.34 314.505 363.149 313.941C362.958 313.377 362.887 312.78 362.94 312.188L363.019 311.231C363.11 310.159 363.602 309.16 364.395 308.432C365.188 307.704 366.226 307.301 367.302 307.301H368.22C368.816 307.303 369.405 307.428 369.95 307.669C370.495 307.909 370.985 308.261 371.387 308.7C371.79 309.14 372.097 309.658 372.289 310.222C372.481 310.786 372.554 311.384 372.503 311.978L372.412 312.935C372.32 314.004 371.83 314.999 371.039 315.725C370.248 316.45 369.214 316.852 368.141 316.852Z" fill="black"/>
    <path d="M426.059 238.209H388.015L388.264 235.353H426.308L426.059 238.209Z" fill="black"/>
    <path d="M408.268 262.982H394.722L394.971 260.113H408.517L408.268 262.982Z" fill="black"/>
    <path d="M464.81 290.755H451.251L451.5 287.899H465.059L464.81 290.755Z" fill="black"/>
    <path d="M403.906 312.804H390.36L390.608 309.948H404.155L403.906 312.804Z" fill="black"/>
    <path d="M423.452 312.804H409.893L410.142 309.948H423.701L423.452 312.804Z" fill="black"/>
    <path d="M446.443 290.755H411.832L412.08 287.899H446.692L446.443 290.755Z" fill="black"/>
    <path d="M492.61 260.113H488.012H483.702H465.348L465.099 262.969H483.44H487.763H492.348L492.61 260.113Z" fill="black"/>
    <path d="M452.863 312.804H430.068L430.317 309.948H453.112L452.863 312.804Z" fill="black"/>
    <path d="M457.212 262.982H415.054L415.303 260.113H457.461L457.212 262.982Z" fill="black"/>
    <path d="M453.491 238.209H439.945L440.194 235.353H453.74L453.491 238.209Z" fill="black"/>
    <path d="M494.785 235.353H490.186H485.85H460.527L460.278 238.209H485.614H489.924H494.523L494.785 235.353Z" fill="black"/>
  </g>
  <path d="M316.8 309.812L312.516 310.205C311.887 310.271 311.887 309.275 312.516 309.223L316.8 308.83C317.442 308.764 317.428 309.76 316.8 309.812Z" fill="black"/>
  <path d="M317.048 323.777L319.577 325.677C320.088 326.057 319.577 326.922 319.079 326.542L316.551 324.629C316.053 324.262 316.551 323.398 317.048 323.777Z" fill="black"/>
  <path d="M323.363 318.406L327.555 319.271C328.184 319.389 327.922 320.345 327.293 320.214L323.101 319.363C322.485 319.232 322.747 318.275 323.363 318.406Z" fill="black"/>
  <path d="M319.721 313.742L317.704 310.651C317.35 310.127 318.201 309.629 318.555 310.153L320.638 313.245C320.992 313.769 320.14 314.266 319.787 313.742H319.721Z" fill="black"/>
  <path d="M312.647 318.026L316.014 318.786C316.642 318.93 316.367 319.873 315.752 319.742L312.385 318.983C311.769 318.838 312.031 317.895 312.647 318.026Z" fill="black"/>
  <path d="M283.799 322.166L279.607 322.638C278.978 322.716 278.991 321.721 279.607 321.655L283.799 321.17C284.428 321.105 284.428 322.087 283.799 322.166Z" fill="black"/>
  <path d="M315.083 298.035L311.939 299.489C311.363 299.764 310.865 298.912 311.441 298.637L314.586 297.17C315.162 296.908 315.66 297.76 315.083 298.035Z" fill="black"/>
  <path d="M306.882 287.515L305.297 291.628C305.075 292.218 304.118 291.956 304.341 291.366C304.878 289.991 305.402 288.615 305.926 287.24C306.149 286.65 307.105 286.912 306.882 287.502V287.515Z" fill="black"/>
  <path d="M283.367 317.699H279.607C279.49 317.68 279.384 317.62 279.308 317.53C279.232 317.44 279.19 317.325 279.19 317.207C279.19 317.089 279.232 316.975 279.308 316.885C279.384 316.795 279.49 316.735 279.607 316.716H283.367C283.483 316.735 283.589 316.795 283.666 316.885C283.742 316.975 283.784 317.089 283.784 317.207C283.784 317.325 283.742 317.44 283.666 317.53C283.589 317.62 283.483 317.68 283.367 317.699Z" fill="black"/>
  <path d="M283.236 307.926L280.105 307.231C279.476 307.1 279.738 306.144 280.367 306.288L283.498 306.969C284.127 307.1 283.851 308.057 283.236 307.926Z" fill="black"/>
  <path d="M295.432 289.925L294.463 286.624C294.441 286.502 294.466 286.376 294.532 286.271C294.598 286.165 294.702 286.089 294.821 286.056C294.941 286.023 295.069 286.036 295.18 286.093C295.29 286.15 295.376 286.246 295.419 286.362L296.389 289.663C296.411 289.786 296.386 289.912 296.32 290.017C296.253 290.122 296.15 290.198 296.03 290.231C295.91 290.264 295.783 290.251 295.672 290.194C295.561 290.138 295.476 290.042 295.432 289.925Z" fill="black"/>
  <path d="M309.686 329.843C309.686 329.843 332.324 320.384 325.485 312.314C318.935 304.624 316.105 322.454 309.686 324.76C303.267 327.066 309.686 329.843 309.686 329.843Z" fill="#4088FF"/>
  <path opacity="0.1" d="M309.686 329.843C309.686 329.843 332.324 320.384 325.485 312.314C318.935 304.624 316.105 322.454 309.686 324.76C303.267 327.066 309.686 329.843 309.686 329.843Z" fill="white"/>
  <path d="M310.538 334.756C310.538 334.756 325.931 287.895 298.446 288.628C270.96 289.362 285.987 337.585 285.987 337.585L310.538 334.756Z" fill="#4088FF"/>
  <path opacity="0.3" d="M310.538 334.756C310.538 334.756 325.931 287.895 298.446 288.628C270.96 289.362 285.987 337.585 285.987 337.585L310.538 334.756Z" fill="white"/>
  <path opacity="0.2" d="M285.987 337.585C285.987 337.585 281.349 322.677 281.952 309.314C283.026 331.009 301.904 329.843 301.904 329.843L303.214 335.594L285.987 337.585Z" fill="black"/>
  <path d="M324.097 328.101L320.573 356.608C320.332 358.568 319.383 360.372 317.904 361.681C316.424 362.989 314.517 363.71 312.542 363.708H289.301C287.324 363.713 285.414 362.993 283.931 361.685C282.449 360.376 281.498 358.57 281.258 356.608L277.733 328.101H324.097Z" fill="#263238"/>
  <path d="M324.097 328.101L320.573 356.608C320.332 358.568 319.383 360.372 317.904 361.681C316.424 362.989 314.517 363.71 312.542 363.708H289.301C287.324 363.713 285.414 362.993 283.931 361.685C282.449 360.376 281.498 358.57 281.258 356.608L277.733 328.101H324.097Z" fill="#263238"/>
  <path opacity="0.2" d="M324.097 328.101L320.573 356.608C320.332 358.568 319.383 360.372 317.904 361.681C316.424 362.989 314.517 363.71 312.542 363.708H289.301C287.324 363.713 285.414 362.993 283.931 361.685C282.449 360.376 281.498 358.57 281.258 356.608L277.733 328.101H324.097Z" fill="white"/>
  <g opacity="0.2">
    <path d="M307.734 327.236C309.568 315.668 309.267 295.69 294.384 293.633C293.336 293.489 293.782 291.904 294.817 292.048C310.76 294.249 311.284 315.315 309.319 327.682C309.149 328.73 307.564 328.284 307.734 327.236Z" fill="white"/>
  </g>
  <g opacity="0.5">
    <path d="M301.839 326.214C302.651 316.86 300.778 306.236 294.45 299.03C293.756 298.244 294.908 297.065 295.616 297.864C302.166 305.384 304.341 316.415 303.476 326.214C303.385 327.262 301.734 327.275 301.826 326.214H301.839Z" fill="white"/>
  </g>
  <g opacity="0.2">
    <path d="M295.275 326.437C293.349 318.655 291.987 310.716 290.795 302.856C290.638 301.821 292.223 301.375 292.38 302.423C293.585 310.284 295 318.275 296.86 326.004C297.109 327.039 295.55 327.485 295.275 326.45V326.437Z" fill="white"/>
  </g>
  <g opacity="0.5">
    <path d="M287.939 326.437C285.37 319.255 284.313 311.619 284.834 304.009C284.834 302.947 286.55 302.947 286.485 304.009C285.965 311.469 287.005 318.955 289.537 325.991C289.904 327 288.306 327.419 287.939 326.437Z" fill="white"/>
  </g>
  <g opacity="0.3">
    <path d="M314.415 324.38C317.834 322.415 322.367 319.323 323.297 315.21C323.533 314.175 325.132 314.607 324.883 315.642C323.861 320.149 319.04 323.568 315.254 325.756C315.064 325.867 314.839 325.898 314.626 325.843C314.413 325.788 314.232 325.65 314.12 325.461C314.009 325.272 313.978 325.046 314.033 324.833C314.088 324.621 314.226 324.439 314.415 324.328V324.38Z" fill="white"/>
  </g>
  <g opacity="0.2">
    <path d="M321.961 315.327C320.686 317.127 319.407 318.913 318.123 320.686C317.507 321.537 316.079 320.686 316.695 319.86L320.546 314.502C321.162 313.651 322.59 314.502 321.961 315.327Z" fill="white"/>
  </g>
  <path d="M289.472 292.834C289.472 292.834 292.93 291.38 293.048 290.292C293.205 288.707 290.31 285.406 288.738 285.602C287.428 285.772 286.262 290.292 286.262 290.292C286.262 290.292 285.109 285.759 283.786 285.602C282.044 285.406 278.952 289.179 279.201 290.921C279.345 291.93 282.646 293.135 282.646 293.135C282.646 293.135 279.044 293.135 278.572 294.118C277.904 295.428 279.489 299.358 280.956 299.581C282.096 299.803 284.245 296.318 284.245 296.318C284.245 296.318 282.279 299.554 282.934 300.471C283.589 301.388 287.022 301.781 287.873 300.904C288.725 300.026 287.179 296.318 287.179 296.318C287.179 296.318 289.052 299.607 290.166 299.581C291.659 299.581 294.319 296.502 294.018 295.035C293.703 293.816 289.472 292.834 289.472 292.834Z" fill="#4088FF"/>
  <path d="M315.883 315.209L312.516 314.961C311.887 314.961 311.887 313.913 312.516 313.965L315.883 314.227C316.511 314.227 316.524 315.262 315.883 315.209Z" fill="black"/>
  <path d="M316.393 303.681L313.171 304.415C312.555 304.559 312.28 303.602 312.909 303.471L316.131 302.738C316.76 302.594 317.022 303.55 316.393 303.681Z" fill="black"/>
  <path d="M312.044 291.864L309.293 294.812C308.861 295.283 308.166 294.576 308.599 294.117L311.35 291.157C311.782 290.685 312.476 291.393 312.044 291.864Z" fill="black"/>
  <path d="M284.847 326.384L280.367 327.472C280.244 327.494 280.118 327.469 280.013 327.403C279.908 327.336 279.832 327.233 279.799 327.113C279.766 326.993 279.779 326.866 279.836 326.755C279.892 326.644 279.988 326.559 280.105 326.515L284.585 325.428C285.201 325.284 285.463 326.24 284.847 326.384Z" fill="black"/>
  <path d="M282.712 312.786L279.476 311.974C279.359 311.93 279.264 311.845 279.207 311.734C279.15 311.623 279.137 311.496 279.17 311.376C279.203 311.256 279.279 311.153 279.384 311.086C279.489 311.02 279.616 310.995 279.738 311.017L282.974 311.83C283.09 311.873 283.186 311.959 283.243 312.069C283.299 312.18 283.312 312.308 283.28 312.427C283.247 312.547 283.17 312.65 283.065 312.717C282.96 312.783 282.834 312.808 282.712 312.786Z" fill="black"/>
  <path d="M283.236 304.048L280.105 303.393C279.476 303.262 279.738 302.305 280.367 302.436L283.498 303.105C284.127 303.236 283.865 304.179 283.236 304.048Z" fill="black"/>
  <path d="M299.926 289.794V286.834C299.926 286.702 299.978 286.575 300.072 286.482C300.165 286.388 300.292 286.336 300.424 286.336C300.556 286.336 300.682 286.388 300.776 286.482C300.869 286.575 300.922 286.702 300.922 286.834V289.794C300.922 289.926 300.869 290.053 300.776 290.146C300.682 290.24 300.556 290.292 300.424 290.292C300.292 290.292 300.165 290.24 300.072 290.146C299.978 290.053 299.926 289.926 299.926 289.794Z" fill="black"/>
  <path d="M312.162 322.218L314.965 322.978C315.091 323.013 315.197 323.096 315.261 323.209C315.324 323.322 315.341 323.456 315.306 323.581C315.271 323.706 315.188 323.812 315.075 323.876C314.962 323.94 314.829 323.956 314.703 323.921L311.9 323.175C311.784 323.131 311.688 323.046 311.631 322.935C311.574 322.824 311.561 322.697 311.594 322.577C311.627 322.457 311.703 322.354 311.808 322.287C311.914 322.221 312.04 322.196 312.162 322.218Z" fill="black"/>
  <path d="M311.481 325.69L314.337 326.371C314.952 326.515 314.69 327.472 314.075 327.328L311.219 326.633C310.603 326.489 310.865 325.533 311.481 325.69Z" fill="black"/>
  <path d="M320.389 321.485L323.822 323.371C324.385 323.673 323.887 324.524 323.324 324.223L319.891 322.336C319.797 322.262 319.732 322.156 319.71 322.038C319.687 321.92 319.708 321.797 319.769 321.694C319.83 321.59 319.926 321.511 320.04 321.473C320.154 321.435 320.278 321.439 320.389 321.485Z" fill="black"/>
  <path d="M324.149 314.672L327.791 312.668C328.354 312.367 328.852 313.218 328.289 313.533L324.647 315.524C324.536 315.57 324.412 315.574 324.298 315.536C324.184 315.497 324.087 315.419 324.027 315.315C323.966 315.211 323.945 315.089 323.967 314.971C323.99 314.853 324.054 314.747 324.149 314.672Z" fill="black"/>
  <path d="M322.276 311.764L323.101 307.664C323.232 307.035 324.175 307.297 324.057 307.926L323.232 312.039C323.101 312.655 322.158 312.393 322.276 311.764Z" fill="black"/>
  <path d="M317.704 315.76L315.869 313.847C315.424 313.376 316.118 312.681 316.564 313.14L318.398 315.066C318.843 315.524 318.149 316.232 317.704 315.76Z" fill="black"/>
</svg>
