<svg width="388" height="343" viewBox="0 0 388 343" fill="none" xmlns="http://www.w3.org/2000/svg">
<path d="M193.89 342.5C300.972 342.5 387.78 337.432 387.78 331.18C387.78 324.928 300.972 319.86 193.89 319.86C86.8075 319.86 0 324.928 0 331.18C0 337.432 86.8075 342.5 193.89 342.5Z" fill="#1D1B20"/>
<path d="M70 253.63H198.44V319.94C198.44 320.79 198.273 321.631 197.947 322.416C197.622 323.201 197.146 323.914 196.545 324.515C195.944 325.116 195.231 325.592 194.446 325.917C193.661 326.243 192.82 326.41 191.97 326.41H76.47C75.6203 326.41 74.779 326.243 73.994 325.917C73.2091 325.592 72.4958 325.116 71.895 324.515C71.2942 323.914 70.8176 323.201 70.4925 322.416C70.1674 321.631 70 320.79 70 319.94V253.63Z" fill="#4088FF"/>
<path d="M70 253.63H160.89L149.71 239.32C148.48 237.75 145.44 236.48 142.91 236.48H61.17C58.65 236.48 57.59 237.75 58.82 239.32L70 253.63Z" fill="#4088FF"/>
<path opacity="0.2" d="M70 253.63H160.89L149.71 239.32C148.48 237.75 145.44 236.48 142.91 236.48H61.17C58.65 236.48 57.59 237.75 58.82 239.32L70 253.63Z" fill="black"/>
<path d="M198.44 253.63H107.56L118.74 244.3C119.97 243.3 123.01 242.45 125.54 242.45H207.27C209.8 242.45 210.85 243.28 209.62 244.3L198.44 253.63Z" fill="#4088FF"/>
<path opacity="0.2" d="M107.56 253.63H198.44V319.94C198.44 320.79 198.273 321.631 197.947 322.416C197.622 323.201 197.146 323.914 196.545 324.515C195.944 325.116 195.231 325.592 194.446 325.917C193.661 326.243 192.82 326.41 191.97 326.41H114.03C113.18 326.41 112.339 326.243 111.554 325.917C110.769 325.592 110.056 325.116 109.455 324.515C108.854 323.914 108.378 323.201 108.053 322.416C107.727 321.631 107.56 320.79 107.56 319.94V253.63Z" fill="white"/>
<path opacity="0.5" d="M81.28 253.63V299.11L84.42 296.63L86.63 299.11L88.55 296.35L90.52 299.11L93.26 297.04L96.28 299.11V253.63H81.28Z" fill="white"/>
<path d="M101.61 154.42L85.4604 140.86" stroke="#4088FF" stroke-miterlimit="10"/>
<path d="M109.98 161.45L105.06 157.31" stroke="#4088FF" stroke-miterlimit="10"/>
<path d="M158.36 189.83L211.64 123.24L140.7 63.6799L93.7004 117.61L86.7004 131.1C86.3528 131.483 86.0881 131.933 85.9226 132.423C85.7571 132.913 85.6944 133.432 85.7385 133.947C85.7826 134.463 85.9326 134.963 86.1789 135.418C86.4253 135.873 86.7628 136.272 87.1704 136.59L151.17 190.33C152.211 191.169 153.53 191.583 154.863 191.49C156.197 191.397 157.446 190.804 158.36 189.83Z" fill="#4088FF"/>
<path opacity="0.5" d="M121.82 140.72L114.15 153.07L117.24 153.74L118.29 156.6L120.34 156.72L121.29 159.17L123.8 159.9L125.73 162.97L133.4 150.62L121.82 140.72Z" fill="white"/>
<path opacity="0.1" d="M209.32 121.29L161.54 174.59L93.6704 117.61L140.7 63.6799L209.32 121.29Z" fill="black"/>
<path d="M209.32 121.29L161.54 174.59L181.32 176.05L228.36 122.12L209.32 121.29Z" fill="#4088FF"/>
<path opacity="0.3" d="M209.32 121.29L161.54 174.59L181.32 176.05L228.36 122.12L209.32 121.29Z" fill="black"/>
<path d="M121.67 62.8401L73.8804 116.15L93.6704 117.61L140.7 63.6801L121.67 62.8401Z" fill="#4088FF"/>
<path opacity="0.4" d="M121.67 62.8401L73.8804 116.15L93.6704 117.61L140.7 63.6801L121.67 62.8401Z" fill="black"/>
<path opacity="0.1" d="M194.61 137.7L209.32 121.29L140.7 63.6799L131.92 84.8399L194.61 137.7Z" fill="black"/>
<path opacity="0.2" d="M93.6704 117.61L140.7 63.6799L131.92 84.8399L98.8004 121.92L93.6704 117.61Z" fill="black"/>
<path d="M225.89 20.9401C226.08 21.5801 225.89 22.2101 225.47 22.3301C225.05 22.4501 224.56 22.0301 224.37 21.3901C224.18 20.7501 224.37 20.1201 224.79 19.9901C225.21 19.8601 225.71 20.3001 225.89 20.9401Z" fill="#263238"/>
<path d="M225.96 22.2C225.772 24.4002 225.281 26.564 224.5 28.63C225.035 28.8154 225.604 28.8819 226.167 28.8249C226.73 28.7679 227.274 28.5888 227.76 28.2999L225.96 22.2Z" fill="#ED847E"/>
<path d="M227.22 16.67C227.305 16.6212 227.369 16.5429 227.4 16.45C227.419 16.4015 227.428 16.3497 227.426 16.2978C227.424 16.2458 227.411 16.1948 227.389 16.148C227.366 16.1011 227.334 16.0594 227.295 16.0253C227.256 15.9912 227.21 15.9656 227.16 15.95C226.575 15.7254 225.943 15.6454 225.32 15.7167C224.697 15.7881 224.1 16.0088 223.58 16.36C223.513 16.4286 223.472 16.5193 223.466 16.6154C223.46 16.7115 223.489 16.8066 223.547 16.8833C223.605 16.9599 223.689 17.0129 223.784 17.0325C223.878 17.0521 223.976 17.037 224.06 16.99C224.476 16.7175 224.95 16.5482 225.444 16.496C225.938 16.4438 226.437 16.5103 226.9 16.69C226.952 16.7089 227.007 16.7169 227.062 16.7135C227.117 16.71 227.171 16.6952 227.22 16.67Z" fill="#263238"/>
<path d="M248.13 25.2199C248.57 30.5199 249.88 40.2199 253.01 42.4599C253.01 42.4599 252.27 48.8299 241.01 50.4599C228.67 52.2799 234.21 45.1999 234.21 45.1999C240.7 42.5999 239.79 37.6299 237.93 33.1099L242.69 27.6499C244.52 25.6299 247.89 22.5099 248.13 25.2199Z" fill="#FFC3BD"/>
<path d="M257.04 45.05C258.04 44.14 256.04 40.5 254.81 39.99C251.59 38.64 238.42 39.99 233.47 44.24C233.06 44.9432 232.812 45.7293 232.744 46.5408C232.677 47.3523 232.792 48.1686 233.08 48.93L257.04 45.05Z" fill="white"/>
<path d="M298.98 312.35C298.655 312.498 298.304 312.58 297.946 312.59C297.589 312.601 297.234 312.539 296.9 312.41C296.769 312.306 296.672 312.164 296.624 312.003C296.575 311.842 296.578 311.67 296.63 311.51C296.657 311.379 296.712 311.256 296.791 311.149C296.871 311.042 296.973 310.953 297.09 310.89C298.17 310.26 300.84 311.09 300.95 311.13C300.987 311.14 301.02 311.16 301.045 311.189C301.07 311.217 301.086 311.253 301.09 311.29C301.096 311.33 301.089 311.37 301.071 311.405C301.053 311.441 301.025 311.47 300.99 311.49C300.351 311.844 299.678 312.132 298.98 312.35ZM297.52 311.13L297.29 311.23C297.222 311.267 297.163 311.318 297.116 311.381C297.07 311.443 297.037 311.514 297.02 311.59C296.95 311.95 297.09 312.06 297.13 312.09C297.61 312.43 299.24 311.94 300.37 311.37C299.45 311.081 298.476 310.999 297.52 311.13Z" fill="#4088FF"/>
<path d="M300.95 311.5C300.918 311.51 300.883 311.51 300.85 311.5C299.85 311.3 297.76 310.05 297.65 309.11C297.635 308.962 297.671 308.813 297.753 308.689C297.835 308.565 297.958 308.473 298.1 308.43C298.239 308.368 298.389 308.336 298.54 308.336C298.692 308.336 298.842 308.368 298.98 308.43C300.14 308.91 301.04 311.15 301.07 311.24C301.09 311.27 301.101 311.305 301.101 311.34C301.101 311.376 301.09 311.411 301.07 311.44C301.056 311.459 301.038 311.474 301.017 311.484C300.997 311.495 300.974 311.5 300.95 311.5ZM298.35 308.77C298.321 308.761 298.29 308.761 298.26 308.77C298.03 308.87 298.04 308.99 298.05 309.04C298.11 309.6 299.53 310.61 300.54 310.98C300.24 310.33 299.54 309.07 298.83 308.77C298.676 308.711 298.505 308.711 298.35 308.77Z" fill="#4088FF"/>
<path d="M240.37 323.09C239.3 323.09 238.27 322.94 237.92 322.46C237.831 322.334 237.783 322.184 237.783 322.03C237.783 321.876 237.831 321.725 237.92 321.6C237.987 321.484 238.076 321.383 238.183 321.302C238.289 321.221 238.411 321.163 238.54 321.13C239.93 320.76 242.85 322.42 242.97 322.49C243.007 322.508 243.038 322.537 243.057 322.574C243.076 322.61 243.082 322.652 243.076 322.692C243.069 322.733 243.049 322.77 243.019 322.799C242.989 322.827 242.951 322.845 242.91 322.85C242.073 323.006 241.223 323.087 240.37 323.09ZM239.05 321.47C238.922 321.465 238.793 321.482 238.67 321.52C238.51 321.556 238.37 321.653 238.28 321.79C238.14 322.04 238.19 322.16 238.28 322.23C238.67 322.77 240.78 322.78 242.28 322.56C241.284 321.991 240.187 321.621 239.05 321.47Z" fill="#4088FF"/>
<path d="M242.89 322.86H242.81C241.81 322.41 239.81 320.6 239.96 319.66C239.96 319.44 240.16 319.16 240.7 319.11C240.896 319.088 241.093 319.107 241.281 319.166C241.469 319.224 241.642 319.321 241.79 319.45C242.86 320.32 243.08 322.57 243.09 322.66C243.096 322.695 243.091 322.73 243.077 322.762C243.063 322.794 243.04 322.821 243.01 322.84C242.974 322.86 242.931 322.867 242.89 322.86ZM240.89 319.48H240.77C240.41 319.48 240.39 319.66 240.38 319.7C240.29 320.27 241.65 321.7 242.67 322.31C242.583 321.356 242.198 320.454 241.57 319.73C241.383 319.565 241.14 319.476 240.89 319.48Z" fill="#4088FF"/>
<path d="M252.07 322.66H243.72L242.89 303.34H251.24L252.07 322.66Z" fill="#FFC3BD"/>
<path d="M310.72 309.47L303.03 312.12L295.05 293.91L302.74 291.26L310.72 309.47Z" fill="#FFC3BD"/>
<path d="M301.2 310.21L310.2 307.46C310.36 307.411 310.531 307.418 310.685 307.48C310.84 307.542 310.969 307.655 311.05 307.8L314.8 314.4C314.89 314.561 314.943 314.741 314.954 314.926C314.965 315.11 314.934 315.295 314.864 315.466C314.794 315.637 314.686 315.79 314.549 315.914C314.411 316.037 314.248 316.128 314.07 316.18C310.92 317.09 309.35 317.37 305.41 318.58C302.98 319.32 296.86 321.64 293.41 322.33C289.96 323.02 288.85 319.72 290.19 319.13C296.19 316.48 298.65 313.47 300.08 311.13C300.33 310.698 300.728 310.371 301.2 310.21Z" fill="#263238"/>
<path d="M243.78 321.69H252.89C253.055 321.692 253.215 321.75 253.343 321.853C253.472 321.956 253.562 322.099 253.6 322.26L255.25 329.68C255.291 329.859 255.291 330.045 255.25 330.224C255.208 330.403 255.126 330.57 255.011 330.712C254.895 330.855 254.749 330.969 254.582 331.047C254.416 331.124 254.234 331.163 254.05 331.16C250.76 331.11 246.05 330.91 241.88 330.91C237.05 330.91 235.02 331.18 229.35 331.18C225.93 331.18 224.98 327.72 226.41 327.4C232.94 325.97 236.13 325.82 241.77 322.34C242.368 321.944 243.064 321.719 243.78 321.69Z" fill="#263238"/>
<path d="M268.03 47.78C270.46 50.01 272.56 52.24 274.74 54.57C276.92 56.9 278.94 59.31 280.9 61.88C282.947 64.4909 284.805 67.2446 286.46 70.12C287.365 71.7049 288.147 73.3563 288.8 75.06C288.97 75.53 289.14 75.98 289.28 76.49C289.444 77.0059 289.581 77.5299 289.69 78.06L289.86 78.89L289.98 79.81C290.092 80.653 290.092 81.5071 289.98 82.35C289.751 83.9412 289.163 85.4595 288.26 86.79C287.602 87.7617 286.83 88.6514 285.96 89.44C284.562 90.7082 283.034 91.8245 281.4 92.77C278.523 94.4161 275.512 95.8177 272.4 96.96C266.497 99.1513 260.414 100.824 254.22 101.96L252.47 95.96C257.9 93.61 263.4 91.07 268.47 88.36C270.938 87.0654 273.314 85.6019 275.58 83.98C276.524 83.3093 277.393 82.5382 278.17 81.68C278.407 81.4263 278.605 81.1401 278.76 80.83C278.84 80.66 278.76 80.68 278.66 81.04C278.59 81.71 278.6 81.19 278.44 80.83C278.39 80.66 278.3 80.43 278.21 80.21C278.12 79.99 278.01 79.74 277.9 79.5C277.359 78.4094 276.754 77.351 276.09 76.33C274.546 74.0369 272.877 71.8303 271.09 69.72C269.25 67.54 267.31 65.37 265.32 63.24C263.33 61.11 261.24 58.96 259.32 56.98L268.03 47.78Z" fill="#FFC3BD"/>
<path d="M254.76 95.01L246.89 97.39L251.95 105.71C251.95 105.71 256.6 103.79 257.63 99.84L254.76 95.01Z" fill="#FFC3BD"/>
<path d="M243.71 100.34L246.81 107.2L251.9 105.72L246.84 97.3899L243.71 100.34Z" fill="#FFC3BD"/>
<path d="M249.59 50.0401C248.84 58.0401 265.76 70.4201 265.76 70.4201L282.05 59.2701C279.221 54.053 275.087 49.6597 270.05 46.5201C260.71 40.5401 250.53 40.1001 249.59 50.0401Z" fill="#4088FF"/>
<g opacity="0.3">
<path d="M249.59 50.0401C248.84 58.0401 265.76 70.4201 265.76 70.4201L282.05 59.2701C279.221 54.053 275.087 49.6597 270.05 46.5201C260.71 40.5401 250.53 40.1001 249.59 50.0401Z" fill="white"/>
</g>
<path d="M221.89 49.4001C221.89 49.4001 214.58 60.62 231.94 120.8L276.08 114.28C275.46 108.18 268.08 81.57 267.83 52.48C267.82 51.0752 267.525 49.6871 266.964 48.3993C266.402 47.1115 265.586 45.9509 264.563 44.9874C263.541 44.0239 262.334 43.2775 261.015 42.7933C259.697 42.3091 258.293 42.0971 256.89 42.17C255.61 42.24 254.29 42.33 252.98 42.46C246.679 43.0219 240.415 43.9467 234.22 45.23C230.009 46.3015 225.887 47.6956 221.89 49.4001Z" fill="#4088FF"/>
<g opacity="0.3">
<path d="M221.89 49.4001C221.89 49.4001 214.58 60.62 231.94 120.8L276.08 114.28C275.46 108.18 268.08 81.57 267.83 52.48C267.82 51.0752 267.525 49.6871 266.964 48.3993C266.402 47.1115 265.586 45.9509 264.563 44.9874C263.541 44.0239 262.334 43.2775 261.015 42.7933C259.697 42.3091 258.293 42.0971 256.89 42.17C255.61 42.24 254.29 42.33 252.98 42.46C246.679 43.0219 240.415 43.9467 234.22 45.23C230.009 46.3015 225.887 47.6956 221.89 49.4001Z" fill="white"/>
</g>
<path opacity="0.2" d="M220.81 68.7401L220.96 68.5701L231.34 69.4901C232.92 76.1901 227.14 85.3301 224.09 89.5701C222.622 82.691 221.527 75.7375 220.81 68.7401Z" fill="black"/>
<path opacity="0.2" d="M242.89 303.35L243.32 313.31H251.67L251.24 303.35H242.89Z" fill="black"/>
<path opacity="0.2" d="M302.74 291.26L295.05 293.91L299.17 303.3L306.86 300.65L302.74 291.26Z" fill="black"/>
<path d="M247.04 13.2601C248.88 21.3301 250.36 25.9601 247.55 31.2601C243.33 39.1501 232.47 38.39 228.26 31.03C224.47 24.4 222.09 12.3201 228.93 6.88006C230.429 5.67652 232.211 4.87529 234.106 4.55215C236.001 4.22901 237.947 4.39465 239.76 5.0334C241.573 5.67214 243.193 6.76288 244.467 8.20243C245.741 9.64197 246.627 11.3827 247.04 13.2601Z" fill="#FFC3BD"/>
<path d="M230.83 21.1701L227.76 23.0501L228.05 12.5501C226.071 12.6351 224.118 12.0696 222.49 10.9401C223.6 9.88011 240.88 3.83011 246.27 4.88011C246.83 4.65011 247.51 3.61011 247.51 3.61011C247.51 3.61011 247.72 4.92011 246.81 5.42011C247.47 5.29011 249.12 5.61011 249.58 6.58011C248.823 6.37334 248.019 6.41898 247.29 6.71011C247.29 6.71011 253.29 7.62011 251.16 15.9401C248.77 25.1101 249.56 30.3801 249.56 30.3801C249.56 30.3801 245.1 33.8301 241.22 33.1901C237.08 28.6301 231.1 23.1501 230.83 21.1701Z" fill="#263238"/>
<path d="M224.95 10.1101C220.08 10.1101 218.33 7.73009 217.08 5.73009C220.58 5.36009 227.87 3.11009 233.28 2.73009C238.69 2.35009 244.62 3.36009 242.83 5.73009C241.04 8.10009 224.95 10.1101 224.95 10.1101Z" fill="#263238"/>
<path d="M226.02 7.94C222.02 7.38 218.12 3.61 221.12 0C222.23 2.65 229.72 2.34 235.04 1.23C242.04 -0.229997 246.89 2.13 244.41 6.9C243.05 9.51 226.02 7.94 226.02 7.94Z" fill="#263238"/>
<path d="M235.15 18.7801C235.723 20.7547 235.632 22.8625 234.89 24.7801C233.89 27.2901 231.67 26.7801 230.51 24.6101C229.51 22.6101 228.75 18.9801 230.45 17.1701C232.15 15.3601 234.43 16.4101 235.15 18.7801Z" fill="#FFC3BD"/>
<path d="M247.6 118.49C247.6 118.49 254.76 179.44 259.96 203.32C265.65 229.48 293.72 300.8 293.72 300.8L307.72 295.96C307.72 295.96 289.72 242.26 284.94 205.69C281.27 177.61 276.04 114.28 276.04 114.28L247.6 118.49Z" fill="#263238"/>
<path d="M290.14 296.32C290.07 296.32 293.01 302.32 293.01 302.32L309.36 297.01L307.44 292.13L290.14 296.32Z" fill="#4088FF"/>
<path opacity="0.3" d="M251.55 149.76C253.79 166.7 256.66 186.76 259.18 199.57C262.89 179.94 263.76 155.15 251.55 149.76Z" fill="black"/>
<path d="M231.94 120.8C231.94 120.8 226 178.06 226.94 203.5C227.88 229.96 240.24 311.38 240.24 311.38H254.37C254.37 311.38 251.77 231.5 252.37 205.52C253.06 177.19 263.68 116.11 263.68 116.11L231.94 120.8Z" fill="#263238"/>
<path d="M237.49 305.75C237.43 305.75 238.29 311.61 238.29 311.61H255.48L255.95 306.38L237.49 305.75Z" fill="#4088FF"/>
<path d="M229.2 63.4599C227.64 65.9399 226.06 68.1699 224.42 70.4599C222.78 72.7499 221.06 74.9599 219.31 77.1599C215.743 81.6229 211.877 85.8392 207.74 89.7799C206.62 90.7799 205.59 91.7799 204.38 92.6899L203.5 93.3999L203.06 93.7499C202.9 93.8799 202.83 93.9499 202.5 94.1899C201.51 94.8965 200.422 95.4557 199.27 95.8499C197.488 96.4587 195.623 96.7958 193.74 96.8499C192.147 96.9034 190.553 96.8331 188.97 96.6399C183.187 95.8816 177.544 94.2848 172.22 91.8999L173.95 85.8999C179.067 86.5069 184.219 86.7542 189.37 86.6399C190.51 86.5802 191.645 86.4567 192.77 86.2699C193.618 86.146 194.442 85.8895 195.21 85.5099C195.45 85.3799 195.58 85.2499 195.55 85.2199C195.52 85.1899 195.68 85.0899 195.77 84.9999L196.11 84.6899L196.78 84.0599C197.68 83.2599 198.53 82.2899 199.41 81.4099C201.14 79.5499 202.86 77.6399 204.49 75.6099C206.12 73.5799 207.77 71.5399 209.37 69.4399C210.97 67.3399 212.52 65.2099 214.08 63.0799C215.64 60.9499 217.16 58.7099 218.6 56.6399L229.2 63.4599Z" fill="#FFC3BD"/>
<path d="M235.01 60.81C238.37 71.81 218.86 84 218.86 84L206.18 67.85C209.038 62.5248 212.567 57.588 216.68 53.16C225.31 43.77 232.45 52.44 235.01 60.81Z" fill="#4088FF"/>
<g opacity="0.3">
<path d="M235.01 60.81C238.37 71.81 218.86 84 218.86 84L206.18 67.85C209.038 62.5248 212.567 57.588 216.68 53.16C225.31 43.77 232.45 52.44 235.01 60.81Z" fill="white"/>
</g>
<path d="M176.89 86.2699L166.62 84.3899L167.7 93.2699C167.7 93.2699 173.04 96.2699 176.91 91.5799L176.89 86.2699Z" fill="#FFC3BD"/>
<path d="M162.66 86.3899L164.88 92.7999L167.68 93.2699L166.6 84.3899L162.66 86.3899Z" fill="#FFC3BD"/>
</svg>
