<svg width="388" height="337" viewBox="0 0 388 337" fill="none" xmlns="http://www.w3.org/2000/svg">
<path d="M193.89 336.25C300.972 336.25 387.78 331.182 387.78 324.93C387.78 318.678 300.972 313.61 193.89 313.61C86.8075 313.61 0 318.678 0 324.93C0 331.182 86.8075 336.25 193.89 336.25Z" fill="#1D1B20"/>
<path opacity="0.5" d="M382.37 62.45H199.65C197.634 62.45 196 64.0841 196 66.1V265.56C196 267.576 197.634 269.21 199.65 269.21H382.37C384.386 269.21 386.02 267.576 386.02 265.56V66.1C386.02 64.0841 384.386 62.45 382.37 62.45Z" fill="#4088FF"/>
<path d="M376.37 58.45H193.65C191.634 58.45 190 60.0841 190 62.1V261.56C190 263.576 191.634 265.21 193.65 265.21H376.37C378.386 265.21 380.02 263.576 380.02 261.56V62.1C380.02 60.0841 378.386 58.45 376.37 58.45Z" fill="#4088FF"/>
<path opacity="0.8" d="M376.37 58.45H193.65C191.634 58.45 190 60.0841 190 62.1V261.56C190 263.576 191.634 265.21 193.65 265.21H376.37C378.386 265.21 380.02 263.576 380.02 261.56V62.1C380.02 60.0841 378.386 58.45 376.37 58.45Z" fill="white"/>
<path opacity="0.5" d="M132.99 57.5601H40.2701C38.2543 57.5601 36.6201 59.1942 36.6201 61.2101V230.67C36.6201 232.686 38.2543 234.32 40.2701 234.32H132.99C135.006 234.32 136.64 232.686 136.64 230.67V61.2101C136.64 59.1942 135.006 57.5601 132.99 57.5601Z" fill="#4088FF"/>
<path d="M126.99 51.5601H34.2701C32.2543 51.5601 30.6201 53.1942 30.6201 55.2101V224.67C30.6201 226.686 32.2543 228.32 34.2701 228.32H126.99C129.006 228.32 130.64 226.686 130.64 224.67V55.2101C130.64 53.1942 129.006 51.5601 126.99 51.5601Z" fill="#4088FF"/>
<path opacity="0.8" d="M126.99 51.5601H34.2701C32.2543 51.5601 30.6201 53.1942 30.6201 55.2101V224.67C30.6201 226.686 32.2543 228.32 34.2701 228.32H126.99C129.006 228.32 130.64 226.686 130.64 224.67V55.2101C130.64 53.1942 129.006 51.5601 126.99 51.5601Z" fill="white"/>
<path d="M376.97 0H34.4701C32.3438 0 30.6201 1.72371 30.6201 3.85001V19.41C30.6201 21.5363 32.3438 23.26 34.4701 23.26H376.97C379.096 23.26 380.82 21.5363 380.82 19.41V3.85001C380.82 1.72371 379.096 0 376.97 0Z" fill="#4088FF"/>
<path opacity="0.6" d="M345.28 11.6301C345.27 12.5159 344.998 13.3791 344.499 14.1108C344 14.8426 343.295 15.4103 342.474 15.7425C341.653 16.0747 340.751 16.1565 339.884 15.9776C339.016 15.7988 338.221 15.3672 337.598 14.7374C336.975 14.1075 336.552 13.3074 336.383 12.4378C336.214 11.5682 336.306 10.668 336.647 9.85049C336.988 9.03296 337.564 8.33464 338.301 7.84345C339.038 7.35226 339.904 7.09014 340.79 7.09009C341.383 7.0927 341.97 7.21229 342.517 7.44199C343.064 7.67168 343.56 8.00698 343.977 8.4287C344.394 8.85041 344.724 9.35025 344.947 9.89959C345.171 10.4489 345.284 11.037 345.28 11.6301Z" fill="white"/>
<path opacity="0.6" d="M359.32 11.6301C359.31 12.5159 359.038 13.3791 358.539 14.1108C358.04 14.8426 357.335 15.4103 356.514 15.7425C355.693 16.0747 354.791 16.1565 353.924 15.9776C353.056 15.7988 352.261 15.3672 351.638 14.7374C351.015 14.1075 350.592 13.3074 350.423 12.4378C350.254 11.5682 350.346 10.668 350.687 9.85049C351.028 9.03296 351.604 8.33464 352.341 7.84345C353.078 7.35226 353.944 7.09014 354.83 7.09009C355.423 7.0927 356.01 7.21229 356.557 7.44199C357.104 7.67168 357.6 8.00698 358.017 8.4287C358.434 8.85041 358.764 9.35025 358.987 9.89959C359.211 10.4489 359.324 11.037 359.32 11.6301Z" fill="white"/>
<path opacity="0.6" d="M373.35 11.6299C373.34 12.5171 373.068 13.3814 372.567 14.1138C372.066 14.8461 371.36 15.4138 370.537 15.7451C369.714 16.0764 368.811 16.1564 367.943 15.9751C367.074 15.7938 366.279 15.3593 365.657 14.7264C365.036 14.0935 364.615 13.2907 364.45 12.4191C364.284 11.5476 364.38 10.6465 364.726 9.82948C365.071 9.0125 365.652 8.31628 366.393 7.82871C367.134 7.34114 368.003 7.08407 368.89 7.08994C370.083 7.10314 371.222 7.58824 372.057 8.43909C372.893 9.28993 373.358 10.4372 373.35 11.6299Z" fill="white"/>
<path opacity="0.6" d="M50.32 5.79004H38.78V17.46H50.32V5.79004Z" fill="white"/>
<path d="M124.4 79.73H16.5601V100.36H124.4V79.73Z" fill="#4088FF"/>
<path opacity="0.2" d="M124.4 79.73H16.5601V100.36H124.4V79.73Z" fill="black"/>
<path d="M32.08 85.74H23.47V94.35H32.08V85.74Z" fill="white"/>
<path d="M25.3499 90.07L26.9599 92.13L30.1999 87.96" stroke="#4088FF" stroke-width="1.5" stroke-linecap="round" stroke-linejoin="round"/>
<path d="M118.72 94.8799H110.06V89.0199H118.72V94.8799ZM114.39 84.6899C113.416 84.6899 112.481 85.0763 111.791 85.7643C111.102 86.4522 110.713 87.3857 110.71 88.3599H111.71C111.752 87.6788 112.052 87.0391 112.549 86.5715C113.046 86.1039 113.703 85.8436 114.385 85.8436C115.068 85.8436 115.724 86.1039 116.221 86.5715C116.718 87.0391 117.018 87.6788 117.06 88.3599H118.06C118.057 87.3874 117.67 86.4555 116.982 85.7678C116.295 85.0801 115.363 84.6926 114.39 84.6899Z" fill="#4088FF"/>
<path d="M108.55 117.87H0.709961V138.5H108.55V117.87Z" fill="#4088FF"/>
<path opacity="0.4" d="M108.55 117.87H0.709961V138.5H108.55V117.87Z" fill="white"/>
<path d="M16.2299 123.87H7.61987V132.48H16.2299V123.87Z" fill="white"/>
<path d="M102.87 127.16H94.21V133.01H102.87V127.16Z" fill="white"/>
<path d="M102.21 126.52H101.21C101.21 125.812 100.929 125.133 100.428 124.632C99.9271 124.131 99.248 123.85 98.5399 123.85C97.8317 123.85 97.1526 124.131 96.6519 124.632C96.1512 125.133 95.8699 125.812 95.8699 126.52H94.8699C94.8699 125.547 95.2565 124.613 95.9448 123.925C96.6331 123.237 97.5665 122.85 98.5399 122.85C99.5132 122.85 100.447 123.237 101.135 123.925C101.823 124.613 102.21 125.547 102.21 126.52Z" fill="white"/>
<path d="M124.96 157.79H17.1199V178.42H124.96V157.79Z" fill="#4088FF"/>
<path opacity="0.4" d="M124.96 157.79H17.1199V178.42H124.96V157.79Z" fill="white"/>
<path d="M32.64 163.8H24.03V172.41H32.64V163.8Z" fill="white"/>
<path d="M25.9099 168.12L27.5199 170.19L30.7599 166.02" stroke="#4088FF" stroke-width="1.5" stroke-linecap="round" stroke-linejoin="round"/>
<g opacity="0.6">
<path d="M119.28 167.08H110.62V172.93H119.28V167.08Z" fill="white"/>
<path d="M118.62 166.45H117.62C117.642 166.085 117.59 165.719 117.465 165.375C117.341 165.031 117.148 164.716 116.897 164.45C116.646 164.184 116.344 163.971 116.008 163.826C115.672 163.681 115.311 163.606 114.945 163.606C114.579 163.606 114.217 163.681 113.882 163.826C113.546 163.971 113.243 164.184 112.993 164.45C112.742 164.716 112.549 165.031 112.425 165.375C112.3 165.719 112.248 166.085 112.27 166.45H111.27C111.244 165.951 111.32 165.452 111.493 164.984C111.665 164.515 111.932 164.087 112.276 163.725C112.62 163.362 113.034 163.074 113.492 162.877C113.951 162.68 114.445 162.578 114.945 162.578C115.444 162.578 115.938 162.68 116.397 162.877C116.856 163.074 117.27 163.362 117.614 163.725C117.958 164.087 118.224 164.515 118.397 164.984C118.57 165.452 118.646 165.951 118.62 166.45Z" fill="white"/>
</g>
<path d="M355.07 135.31H270.86V190.08H355.07V135.31Z" fill="#4088FF"/>
<path opacity="0.5" d="M355.07 135.31H270.86V190.08H355.07V135.31Z" fill="white"/>
<path d="M351.99 145.57H273.94V187.33H351.99V145.57Z" fill="#4088FF"/>
<path d="M338.03 151.81H280.3V153.61H338.03V151.81Z" fill="white"/>
<path d="M308 157.32H280.3V159.12H308V157.32Z" fill="white"/>
<path d="M315.19 162.82H280.3V164.62H315.19V162.82Z" fill="white"/>
<path d="M292.6 168.32H280.3V170.12H292.6V168.32Z" fill="white"/>
<path d="M288.26 173.82H280.3V175.62H288.26V173.82Z" fill="white"/>
<path d="M357.48 243.31V273.85C357.482 274.677 357.185 275.477 356.646 276.103C356.106 276.729 355.358 277.14 354.54 277.26C354.367 277.275 354.193 277.275 354.02 277.26H314.79C313.875 277.26 312.998 276.897 312.351 276.25C311.704 275.603 311.34 274.725 311.34 273.81V243.31C311.337 242.786 311.457 242.269 311.69 241.8C311.972 241.217 312.412 240.725 312.96 240.38C313.508 240.035 314.142 239.851 314.79 239.85H330.17C330.888 239.838 331.586 239.608 332.17 239.19C332.759 238.762 333.199 238.16 333.43 237.47C333.656 236.775 334.096 236.17 334.687 235.741C335.278 235.311 335.99 235.08 336.72 235.08H344.89C345.621 235.079 346.333 235.309 346.925 235.739C347.516 236.168 347.956 236.775 348.18 237.47C348.408 238.163 348.848 238.766 349.439 239.193C350.03 239.621 350.741 239.851 351.47 239.85H353.98C354.438 239.845 354.892 239.93 355.316 240.102C355.741 240.273 356.127 240.527 356.453 240.849C356.778 241.171 357.037 241.554 357.213 241.977C357.389 242.399 357.48 242.852 357.48 243.31Z" fill="#4088FF"/>
<path opacity="0.3" d="M354.54 244.75V277.26H314.79C313.875 277.26 312.998 276.897 312.351 276.25C311.704 275.603 311.34 274.725 311.34 273.81V243.31C311.337 242.786 311.457 242.269 311.69 241.8H351.59C352.369 241.813 353.111 242.128 353.662 242.678C354.212 243.229 354.527 243.972 354.54 244.75Z" fill="white"/>
<path d="M263.86 198.36V236.55L256.4 244.01H229.04V198.36H263.86Z" fill="#4088FF"/>
<path opacity="0.4" d="M263.86 198.36V236.55L256.4 244.01H229.04V198.36H263.86Z" fill="white"/>
<path d="M263.86 236.55H256.4V244.01L263.86 236.55Z" fill="#4088FF"/>
<path d="M259.64 206.11H233.38V207.54H259.64V206.11Z" fill="#4088FF"/>
<path d="M255.47 210.5H233.38V211.93H255.47V210.5Z" fill="#4088FF"/>
<path d="M259.64 214.88H233.38V216.31H259.64V214.88Z" fill="#4088FF"/>
<path d="M243.18 219.27H233.38V220.7H243.18V219.27Z" fill="#4088FF"/>
<path d="M239.73 223.66H233.38V225.09H239.73V223.66Z" fill="#4088FF"/>
<path d="M287.33 52.5898H216.14V111.41H287.33V52.5898Z" fill="#4088FF"/>
<path opacity="0.6" d="M216.14 52.5898V111.41H287.33V52.5898H216.14ZM285.01 109.09H218.47V54.9099H285.01V109.09Z" fill="white"/>
<path opacity="0.3" d="M218.47 93.03L238.87 78.21L254.03 93.03L269.19 84.3699L285.01 94.11V109.09H218.47V93.03Z" fill="white"/>
<path opacity="0.6" d="M266.53 68.2799C266.528 69.2427 266.241 70.1832 265.705 70.9828C265.168 71.7823 264.407 72.405 263.517 72.772C262.627 73.1391 261.648 73.2341 260.704 73.0451C259.76 72.8561 258.893 72.3915 258.213 71.71C257.533 71.0285 257.07 70.1607 256.883 69.2163C256.696 68.2719 256.793 67.2932 257.162 66.4039C257.531 65.5146 258.155 64.7546 258.956 64.22C259.756 63.6853 260.697 63.3999 261.66 63.3999C262.301 63.3999 262.935 63.5262 263.526 63.7716C264.118 64.0169 264.655 64.3765 265.107 64.8298C265.56 65.2831 265.918 65.8212 266.162 66.4132C266.407 67.0052 266.532 67.6395 266.53 68.2799Z" fill="white"/>
<path d="M291.98 113.85V115.85H289.98" stroke="#263238" stroke-miterlimit="10"/>
<path d="M286.84 115.86H215.24" stroke="#263238" stroke-miterlimit="10" stroke-dasharray="4.18 3.14"/>
<path d="M213.67 115.85H211.67V113.85" stroke="#263238" stroke-miterlimit="10"/>
<path d="M211.67 110.96V51.7" stroke="#263238" stroke-miterlimit="10" stroke-dasharray="3.85 2.89"/>
<path d="M211.67 50.25V48.25H213.67" stroke="#263238" stroke-miterlimit="10"/>
<path d="M216.81 48.25H288.41" stroke="#263238" stroke-miterlimit="10" stroke-dasharray="4.18 3.14"/>
<path d="M289.98 48.25H291.98V50.25" stroke="#263238" stroke-miterlimit="10"/>
<path d="M291.98 53.1399V112.41" stroke="#263238" stroke-miterlimit="10" stroke-dasharray="3.85 2.89"/>
<path d="M293.55 46.6699H290.4V49.8199H293.55V46.6699Z" fill="#263238"/>
<path d="M293.55 114.28H290.4V117.43H293.55V114.28Z" fill="#263238"/>
<path d="M213.24 114.28H210.09V117.43H213.24V114.28Z" fill="#263238"/>
<path d="M213.24 46.6699H210.09V49.8199H213.24V46.6699Z" fill="#263238"/>
<path d="M253.31 46.6699H250.16V49.8199H253.31V46.6699Z" fill="#263238"/>
<path d="M253.4 114.28H250.25V117.43H253.4V114.28Z" fill="#263238"/>
<path d="M293.55 80.48H290.4V83.63H293.55V80.48Z" fill="#263238"/>
<path d="M213.24 80.48H210.09V83.63H213.24V80.48Z" fill="#263238"/>
<path d="M118.89 145.31L108.25 153.95C108.25 153.95 105.65 154 104.83 154.86C104.01 155.72 100.83 162.11 101.32 162.98C101.81 163.85 107.01 165.57 108.12 164.54C109.23 163.51 111.12 157.6 111.12 156.97L124.72 147.85L118.89 145.31Z" fill="#EBB376"/>
<path d="M113.17 149.3L115.55 154.49C115.55 154.49 130.18 147.69 133.35 143.69C134.16 142.69 135.28 141.02 136.49 139.15C138.49 136.06 140.73 132.34 142.29 129.73C143.45 127.78 144.23 126.45 144.23 126.45L135.95 113.39C134.14 114.78 128.6 137.1 127.61 138.3C126.62 139.5 113.17 149.3 113.17 149.3Z" fill="#4088FF"/>
<mask id="mask0_14_1390" style="mask-type:luminance" maskUnits="userSpaceOnUse" x="113" y="113" width="32" height="42">
<path d="M113.17 149.3L115.55 154.49C115.55 154.49 130.18 147.69 133.35 143.69C134.16 142.69 135.28 141.02 136.49 139.15C138.49 136.06 140.73 132.34 142.29 129.73C143.45 127.78 144.23 126.45 144.23 126.45L135.95 113.39C134.14 114.78 128.6 137.1 127.61 138.3C126.62 139.5 113.17 149.3 113.17 149.3Z" fill="white"/>
</mask>
<g mask="url(#mask0_14_1390)">
<path opacity="0.1" d="M136.49 139.11C138.49 136.02 140.73 132.3 142.29 129.69L138.44 120.19C138.44 120.19 136.35 131.09 136.49 139.11Z" fill="black"/>
</g>
<path d="M203.94 95.9398L214.42 87.7998C214.42 87.7998 215.27 85.3398 216.34 84.7998C217.41 84.2598 224.45 83.2498 225.14 83.9398C225.83 84.6298 225.86 90.1598 224.54 90.9398C223.22 91.7198 217.01 91.6998 216.42 91.4698L204.97 99.8298L203.94 95.9398Z" fill="#EBB376"/>
<path d="M115.42 319.69L121.69 320.8L124.27 312.24L126.61 304.38L119.38 301.85L117.28 311.29L115.42 319.69Z" fill="#EBB376"/>
<path opacity="0.2" d="M117.24 311.49L124.24 312.41L126.6 304.47L119.37 301.89L117.24 311.49Z" fill="black"/>
<path d="M157.32 319.84H163.7L164.74 311.29L165.69 303.31L158.12 302.16L157.7 311.54L157.32 319.84Z" fill="#EBB376"/>
<path opacity="0.2" d="M157.7 312.1L164.74 311.79L165.69 303.56L158.12 302.28L157.7 312.1Z" fill="black"/>
<path d="M116.65 304.62L126.97 306.44C137.38 280.5 144.79 258.84 149.97 240.87C152.79 231.17 155.02 222.55 156.71 214.87L156.27 243.12V306.83H166.68C192.17 185.83 174.11 157.7 174.11 157.7L143.61 152.6C142.401 158.247 141.549 163.965 141.06 169.72L139.68 179.83L127.76 241.41L116.65 304.62Z" fill="#263238"/>
<path d="M128.59 305.17L115.79 300.92L115.96 306.37L126.55 309.74L128.59 305.17Z" fill="#4088FF"/>
<path opacity="0.6" d="M128.59 305.17L115.79 300.92L115.96 306.37L126.55 309.74L128.59 305.17Z" fill="white"/>
<path d="M168.1 305.76L154.76 303.8L155.87 309.14L166.88 310.62L168.1 305.76Z" fill="#4088FF"/>
<path opacity="0.6" d="M168.1 305.76L154.76 303.8L155.87 309.14L166.88 310.62L168.1 305.76Z" fill="white"/>
<path opacity="0.2" d="M148.62 245.62C149.1 244 149.62 242.42 150.06 240.87C152.62 232.06 154.32 224.15 156.32 217.04L157.32 203.96C157.32 203.96 150.79 189.59 153.23 179.48C153.01 180.05 148.69 191.07 150.39 202.08C150.789 216.617 150.197 231.164 148.62 245.62Z" fill="black"/>
<path d="M147.74 100.22C147.824 100.28 147.915 100.33 148.01 100.37C149.286 101.11 150.697 101.586 152.16 101.77C156.42 102.19 159.16 101.26 160.76 99.1499C162.98 96.0099 162.97 90.9599 161.83 85.0099C161.455 82.6335 160.706 80.3316 159.61 78.1899C159.61 78.1899 159.61 78.0999 159.61 78.0799C159.61 78.0599 159.52 77.9099 159.47 77.8399C158.8 76.6378 157.839 75.6227 156.676 74.8873C155.513 74.1519 154.184 73.7196 152.81 73.6299C151.615 73.5204 150.411 73.5439 149.22 73.6999C137.5 75.0899 137.89 94.6899 147.74 100.22Z" fill="#EBB376"/>
<path opacity="0.2" d="M148.01 100.37C149.289 101.058 150.694 101.479 152.14 101.61C156.4 102.03 159.14 100.96 160.72 98.8198C158.33 99.7547 155.699 99.8811 153.23 99.1798C152.327 98.9682 151.387 98.9653 150.482 99.1715C149.578 99.3777 148.732 99.7876 148.01 100.37Z" fill="black"/>
<path d="M147.13 109.94C146.08 113.2 150.27 114.99 150.27 114.99C157.64 112.66 159.32 108.99 159.32 108.99C153.72 105.33 156.32 96.7998 156.32 96.7998L155.06 97.2698L146.47 98.0898C146.47 98.0898 148.37 102.81 148.58 103.86C149.61 109.43 147.13 109.94 147.13 109.94Z" fill="#EBB376"/>
<path d="M159.62 78.1099C159.62 78.1099 161.33 86.2199 154.02 90.7499C154.02 90.7499 151.8 99.6899 146.9 100.45C140.23 101.45 133.1 92.7299 134.15 82.7299C135.52 69.7699 154.44 66.2699 159.62 78.1099Z" fill="#263238"/>
<path d="M157.65 87.8798C157.48 86.5998 156.17 84.5898 154.22 85.1398C152.27 85.6898 151.73 90.9298 156.93 91.3998C157.67 91.4698 158 90.5498 157.65 87.8798Z" fill="#EBB376"/>
<path d="M164.37 318.69H157.26C157.112 318.687 156.967 318.737 156.852 318.83C156.737 318.923 156.658 319.054 156.63 319.2L155.17 325.79C155.139 325.93 155.137 326.076 155.162 326.217C155.188 326.359 155.241 326.494 155.319 326.615C155.397 326.736 155.499 326.84 155.617 326.921C155.736 327.003 155.869 327.06 156.01 327.09C156.09 327.1 156.17 327.1 156.25 327.09C159.16 327.09 159.4 326.87 163.05 326.87C165.3 326.87 172.1 327.1 175.21 327.1C178.32 327.1 178.72 324.03 177.45 323.75C171.74 322.5 167.45 320.75 165.62 319.14C165.276 318.836 164.829 318.675 164.37 318.69Z" fill="#263238"/>
<path d="M164.89 319.69C164.855 319.683 164.823 319.665 164.799 319.638C164.775 319.61 164.762 319.576 164.76 319.54C164.755 319.507 164.76 319.473 164.774 319.443C164.789 319.413 164.812 319.387 164.84 319.37C165.11 319.2 167.5 317.73 168.32 318.16C168.413 318.203 168.491 318.273 168.544 318.36C168.597 318.447 168.624 318.548 168.62 318.65C168.647 318.825 168.628 319.005 168.563 319.17C168.498 319.335 168.39 319.48 168.25 319.59C167.836 319.88 167.333 320.014 166.83 319.97C166.175 319.951 165.524 319.857 164.89 319.69ZM165.4 319.45C166.265 319.738 167.207 319.692 168.04 319.32C168.127 319.242 168.193 319.143 168.233 319.033C168.273 318.924 168.286 318.806 168.27 318.69C168.27 318.54 168.21 318.48 168.16 318.48C168.089 318.444 168.01 318.426 167.93 318.43C167.028 318.596 166.167 318.932 165.39 319.42L165.4 319.45Z" fill="#4088FF"/>
<path d="M164.83 319.69C164.804 319.673 164.783 319.649 164.769 319.621C164.755 319.593 164.748 319.561 164.75 319.53C164.75 319.43 164.94 317.3 165.75 316.6C165.852 316.512 165.972 316.446 166.101 316.408C166.23 316.37 166.367 316.361 166.5 316.38C166.633 316.378 166.762 316.423 166.864 316.507C166.967 316.591 167.036 316.709 167.06 316.84C167.22 317.62 165.74 319.25 164.97 319.66H164.89C164.872 319.674 164.852 319.684 164.83 319.69ZM166.02 316.81C165.496 317.475 165.189 318.285 165.14 319.13C165.91 318.55 166.85 317.32 166.76 316.84C166.76 316.79 166.76 316.66 166.5 316.66H166.42C166.271 316.661 166.128 316.718 166.02 316.82V316.81Z" fill="#4088FF"/>
<path d="M121.94 318.69H114.82C114.673 318.691 114.53 318.742 114.416 318.835C114.301 318.927 114.222 319.056 114.19 319.2L112.73 325.79C112.699 325.93 112.697 326.076 112.722 326.217C112.748 326.359 112.801 326.494 112.879 326.615C112.957 326.736 113.059 326.84 113.177 326.921C113.296 327.003 113.429 327.06 113.57 327.09C113.65 327.099 113.73 327.099 113.81 327.09C116.73 327.09 116.96 326.87 120.62 326.87C122.87 326.87 129.62 327.1 132.77 327.1C135.92 327.1 136.29 324.03 135.02 323.75C129.31 322.5 125.02 320.75 123.18 319.14C122.84 318.837 122.396 318.676 121.94 318.69Z" fill="#263238"/>
<path d="M122.44 319.69C122.405 319.683 122.373 319.665 122.349 319.638C122.325 319.61 122.312 319.576 122.31 319.54C122.307 319.506 122.315 319.472 122.33 319.442C122.346 319.412 122.371 319.387 122.4 319.37C122.66 319.2 125.05 317.73 125.88 318.16C125.97 318.206 126.046 318.276 126.099 318.363C126.152 318.449 126.18 318.549 126.18 318.65C126.207 318.825 126.188 319.005 126.123 319.17C126.057 319.335 125.95 319.48 125.81 319.59C125.395 319.876 124.893 320.011 124.39 319.97C123.732 319.952 123.077 319.858 122.44 319.69ZM122.95 319.45C123.815 319.738 124.757 319.692 125.59 319.32C125.678 319.242 125.745 319.144 125.787 319.034C125.829 318.925 125.844 318.807 125.83 318.69C125.83 318.54 125.76 318.48 125.71 318.48C125.643 318.443 125.567 318.425 125.49 318.43C124.589 318.599 123.728 318.935 122.95 319.42V319.45Z" fill="#4088FF"/>
<path d="M122.4 319.69C122.371 319.675 122.348 319.651 122.332 319.623C122.316 319.595 122.308 319.562 122.31 319.53C122.31 319.43 122.5 317.3 123.36 316.6C123.459 316.511 123.577 316.444 123.705 316.406C123.833 316.368 123.968 316.359 124.1 316.38C124.234 316.377 124.365 316.422 124.469 316.506C124.573 316.59 124.644 316.708 124.67 316.84C124.82 317.62 123.34 319.25 122.58 319.66H122.49L122.4 319.69ZM123.58 316.81C123.059 317.476 122.756 318.286 122.71 319.13C123.47 318.55 124.41 317.32 124.32 316.84C124.32 316.79 124.32 316.66 124.07 316.66H123.98C123.831 316.661 123.689 316.718 123.58 316.82V316.81Z" fill="#4088FF"/>
<path d="M174.16 157.83C174.16 157.83 179.98 122.38 169.98 106.49C169.98 106.49 149.98 105.25 135.98 113.36C135.98 113.36 141.78 129.14 142.65 157.83H174.16Z" fill="#4088FF"/>
<mask id="mask1_14_1390" style="mask-type:luminance" maskUnits="userSpaceOnUse" x="135" y="106" width="41" height="52">
<path d="M174.16 157.83C174.16 157.83 179.98 122.38 169.98 106.49C169.98 106.49 149.98 105.25 135.98 113.36C135.98 113.36 141.78 129.14 142.65 157.83H174.16Z" fill="white"/>
</mask>
<g mask="url(#mask1_14_1390)">
<path opacity="0.1" d="M175.98 130.69C176.41 125.88 174.98 121.25 174.78 117.17C172.278 114.962 170.067 112.445 168.2 109.68C168.2 109.68 166.39 124.05 175.98 130.69Z" fill="black"/>
</g>
<path d="M167.5 106.42C167.5 106.42 187.29 104.1 190.27 102.85C192.13 102.07 206.68 92.5598 206.68 92.5598L210.09 97.6898C210.09 97.6898 195.21 109.69 192.69 111.09C186.79 114.33 173.53 118.91 173.53 118.91C173.53 118.91 165.52 113.29 167.5 106.42Z" fill="#4088FF"/>
<path d="M159.32 83.4799C159.32 83.4799 167.55 75.2499 159.79 69.7099C152.03 64.1699 144.23 71.3999 144.23 71.3999C144.23 71.3999 125.67 75.8799 129.62 88.2299C133.57 100.58 136.15 101.62 130.27 107.95C124.39 114.28 118.39 123.69 124.4 129.69C130.41 135.69 151.4 129.52 157.79 120.47C164.18 111.42 152.89 91.9699 159.32 83.4799Z" fill="#263238"/>
<path d="M142.63 157.83L142.5 154.47L174.52 155.28V158.39L142.63 157.83Z" fill="black"/>
<path d="M152.78 154.7H151.49V158.01H152.78V154.7Z" fill="#263238"/>
<path d="M167.56 155.07H166.42V158.69H167.56V155.07Z" fill="#263238"/>
<path d="M144.47 154.52H143.38V158.39H144.47V154.52Z" fill="#263238"/>
</svg>
