<svg width="24" height="24" viewBox="0 0 24 24" fill="none" xmlns="http://www.w3.org/2000/svg">
<path d="M4 12V18V6V12ZM14 21C14.2833 21 14.521 20.904 14.713 20.712C14.9043 20.5207 15 20.2833 15 20C15 19.7167 14.9043 19.4793 14.713 19.288C14.521 19.096 14.2833 19 14 19C13.7167 19 13.4793 19.096 13.288 19.288C13.096 19.4793 13 19.7167 13 20C13 20.2833 13.096 20.5207 13.288 20.712C13.4793 20.904 13.7167 21 14 21ZM20 11C20.2833 11 20.5207 10.904 20.712 10.712C20.904 10.5207 21 10.2833 21 10C21 9.71667 20.904 9.479 20.712 9.287C20.5207 9.09567 20.2833 9 20 9C19.7167 9 19.4793 9.09567 19.288 9.287C19.096 9.479 19 9.71667 19 10C19 10.2833 19.096 10.5207 19.288 10.712C19.4793 10.904 19.7167 11 20 11ZM6 11H11V9H6V11ZM6 15H11V13H6V15ZM4 20C3.45 20 2.97933 19.8043 2.588 19.413C2.196 19.021 2 18.55 2 18V6C2 5.45 2.196 4.97933 2.588 4.588C2.97933 4.196 3.45 4 4 4H20C20.55 4 21.021 4.196 21.413 4.588C21.8043 4.97933 22 5.45 22 6H4V18H9V20H4ZM14 23C13.1667 23 12.4583 22.7083 11.875 22.125C11.2917 21.5417 11 20.8333 11 20C11 19.35 11.1873 18.7667 11.562 18.25C11.9373 17.7333 12.4167 17.375 13 17.175V14H19V12.825C18.4167 12.625 17.9373 12.2667 17.562 11.75C17.1873 11.2333 17 10.65 17 10C17 9.16667 17.2917 8.45833 17.875 7.875C18.4583 7.29167 19.1667 7 20 7C20.8333 7 21.5417 7.29167 22.125 7.875C22.7083 8.45833 23 9.16667 23 10C23 10.65 22.8127 11.2333 22.438 11.75C22.0627 12.2667 21.5833 12.625 21 12.825V16H15V17.175C15.5833 17.375 16.0627 17.7333 16.438 18.25C16.8127 18.7667 17 19.35 17 20C17 20.8333 16.7083 21.5417 16.125 22.125C15.5417 22.7083 14.8333 23 14 23Z" fill="white"/>
</svg>
