<svg width="25" height="24" viewBox="0 0 25 24" fill="none" xmlns="http://www.w3.org/2000/svg">
  <mask id="mask0_286_984" style="mask-type:alpha" maskUnits="userSpaceOnUse" x="0" y="0" width="25" height="24">
    <rect x="0.5" width="24" height="24" fill="#D9D9D9"/>
  </mask>
  <g mask="url(#mask0_286_984)">
    <path d="M6.625 21.75C5.83333 21.75 5.15625 21.4729 4.59375 20.9188C4.03125 20.3646 3.75 19.6917 3.75 18.9V15.875H6.5V2.25H21.25V18.9C21.25 19.6917 20.9688 20.3646 20.4062 20.9188C19.8438 21.4729 19.1667 21.75 18.375 21.75H6.625ZM18.375 19.875C18.6583 19.875 18.8958 19.7816 19.0875 19.5947C19.2792 19.4077 19.375 19.1762 19.375 18.9V4.125H8.375V15.875H17.4V18.9C17.4 19.1762 17.4934 19.4077 17.6803 19.5947C17.8671 19.7816 18.0987 19.875 18.375 19.875ZM9.5 8.75V6.875H18.25V8.75H9.5ZM9.5 11.75V9.875H18.25V11.75H9.5ZM6.625 19.875H15.525V17.75H5.625V18.9C5.625 19.1762 5.72083 19.4077 5.9125 19.5947C6.10417 19.7816 6.34167 19.875 6.625 19.875Z" fill="#CAC4D0"/>
  </g>
</svg>
