<svg width="24" height="24" viewBox="0 0 24 24" fill="none" xmlns="http://www.w3.org/2000/svg">
<mask id="mask0_538_3957" style="mask-type:alpha" maskUnits="userSpaceOnUse" x="0" y="0" width="24" height="24">
<rect width="24" height="24" fill="#D9D9D9"/>
</mask>
<g mask="url(#mask0_538_3957)">
<path d="M19.775 22.625L17.15 20H6C5.45 20 4.97917 19.8042 4.5875 19.4125C4.19583 19.0208 4 18.55 4 18V15H6V18H15.15L12.575 15.425L12 16L7 11L7.575 10.425L1.375 4.225L2.8 2.8L21.2 21.2L19.775 22.625ZM15.425 12.575L14 11.15L15.6 9.55L17 11L15.425 12.575ZM13 10.15L11 8.15V4H13V10.15ZM20 17.15L18 15.15V15H20V17.15Z" fill="#CAC4D0"/>
</g>
</svg>
