<svg width="25" height="24" viewBox="0 0 25 24" fill="none" xmlns="http://www.w3.org/2000/svg">
  <mask id="mask0_286_978" style="mask-type:alpha" maskUnits="userSpaceOnUse" x="0" y="0" width="25" height="24">
    <rect x="0.5" width="24" height="24" fill="#D9D9D9"/>
  </mask>
  <g mask="url(#mask0_286_978)">
    <path d="M19.5001 20.9C18.8694 20.9 18.3034 20.7125 17.8021 20.3375C17.3008 19.9625 16.9488 19.4833 16.7461 18.9H11.5001C10.4276 18.9 9.50951 18.5178 8.74585 17.7535C7.98201 16.9893 7.6001 16.0706 7.6001 14.9972C7.6001 13.9241 7.98201 13.0062 8.74585 12.2437C9.50951 11.4812 10.4276 11.1 11.5001 11.1H13.5001C14.0776 11.1 14.572 10.8946 14.9833 10.484C15.3945 10.0731 15.6001 9.57939 15.6001 9.00273C15.6001 8.42589 15.3945 7.93123 14.9833 7.51873C14.572 7.10623 14.0776 6.89998 13.5001 6.89998H8.2546C8.03493 7.48331 7.6786 7.96248 7.1856 8.33748C6.69243 8.71248 6.1306 8.89998 5.5001 8.89998C4.69176 8.89998 4.00635 8.61773 3.44385 8.05323C2.88135 7.48873 2.6001 6.80331 2.6001 5.99698C2.6001 5.19064 2.88201 4.50623 3.44585 3.94373C4.00985 3.38123 4.6946 3.09998 5.5001 3.09998C6.1306 3.09998 6.69243 3.28748 7.1856 3.66248C7.6786 4.03748 8.03493 4.51664 8.2546 5.09998H13.5001C14.5726 5.09998 15.4907 5.48214 16.2543 6.24648C17.0182 7.01064 17.4001 7.92939 17.4001 9.00273C17.4001 10.0759 17.0182 10.9937 16.2543 11.7562C15.4907 12.5187 14.5726 12.9 13.5001 12.9H11.5001C10.9226 12.9 10.4282 13.1053 10.0168 13.516C9.60568 13.9268 9.4001 14.4206 9.4001 14.9972C9.4001 15.5741 9.60568 16.0687 10.0168 16.4812C10.4282 16.8937 10.9226 17.1 11.5001 17.1H16.7456C16.9653 16.5166 17.3216 16.0375 17.8146 15.6625C18.3078 15.2875 18.8696 15.1 19.5001 15.1C20.3084 15.1 20.9938 15.3822 21.5563 15.9467C22.1188 16.5112 22.4001 17.1966 22.4001 18.003C22.4001 18.8093 22.1182 19.4937 21.5543 20.0562C20.9903 20.6187 20.3056 20.9 19.5001 20.9ZM5.5001 7.02498C5.78343 7.02498 6.0251 6.92498 6.2251 6.72498C6.4251 6.52498 6.5251 6.28331 6.5251 5.99998C6.5251 5.71664 6.4251 5.47498 6.2251 5.27498C6.0251 5.07498 5.78343 4.97498 5.5001 4.97498C5.21676 4.97498 4.9751 5.07498 4.7751 5.27498C4.5751 5.47498 4.4751 5.71664 4.4751 5.99998C4.4751 6.28331 4.5751 6.52498 4.7751 6.72498C4.9751 6.92498 5.21676 7.02498 5.5001 7.02498Z" fill="#CAC4D0"/>
  </g>
</svg>
