<svg width="434" height="62" viewBox="0 0 434 62" fill="none" xmlns="http://www.w3.org/2000/svg">
  <path d="M424.21 61C417.75 61 414.51 58.25 414.51 52.74C414.51 49.67 415.31 47.56 416.91 46.4C418.57 45.18 421.01 44.58 424.21 44.58C427.6 44.58 430.07 45.19 431.6 46.4C433.2 47.55 434 49.66 434 52.74C434 58.24 430.74 61 424.21 61Z" fill="white"/>
  <path d="M358.04 61C353.75 61 350.71 60.78 348.92 60.33C347.13 59.88 346.23 59.43 346.23 58.99L350.07 48.91C350.84 49.1 353.11 49.33 356.89 49.58C360.73 49.77 366.3 49.87 373.59 49.87H380.41C382.01 49.87 383 49.71 383.39 49.39C383.84 49.01 384.06 48.37 384.06 47.47C384.06 46.38 383.8 45.71 383.29 45.45C382.84 45.13 381.88 44.97 380.41 44.97H360.92C356.25 44.97 352.63 44.11 350.07 42.38C347.51 40.59 346.23 37.42 346.23 32.88V30.96C346.23 28.59 346.55 26.45 347.19 24.53C347.83 22.55 349.21 20.98 351.32 19.83C353.43 18.61 356.63 18.01 360.92 18.01H389.34C393.18 18.01 395.9 18.23 397.5 18.68C399.1 19.13 399.9 19.58 399.9 20.02L398.94 30.2C397.92 30.01 395.32 29.82 391.16 29.62C387.06 29.36 381.4 29.24 374.17 29.24H367.35C365.75 29.24 364.73 29.43 364.28 29.82C363.9 30.14 363.7 30.72 363.7 31.55C363.7 32.38 363.89 32.99 364.28 33.37C364.73 33.69 365.75 33.85 367.35 33.85H387.22C392.21 33.85 395.89 34.94 398.26 37.11C400.63 39.29 401.81 42.33 401.81 46.23V48.05C401.81 50.35 401.52 52.5 400.95 54.48C400.37 56.4 399.06 57.97 397.01 59.18C394.96 60.4 391.7 61 387.22 61H358.04Z" fill="white"/>
  <path d="M295.13 61C290.91 61 287.74 60.39 285.63 59.18C283.52 57.97 282.11 56.3 281.41 54.19C280.77 52.01 280.45 49.52 280.45 46.7V32.2C280.45 29.51 280.8 27.11 281.51 25C282.21 22.82 283.59 21.13 285.64 19.91C287.75 18.63 290.92 17.99 295.14 17.99H321.83C326.05 17.99 329.19 18.63 331.24 19.91C333.35 21.13 334.73 22.82 335.37 25C336.07 27.11 336.43 29.51 336.43 32.2V46.7C336.43 49.52 336.08 52.01 335.37 54.19C334.73 56.3 333.35 57.97 331.24 59.18C329.19 60.4 326.06 61 321.83 61H295.14H295.13ZM302.81 48.9H314.23C317.3 48.9 318.81 47.62 318.74 45.06V33.92C318.74 32.64 318.39 31.68 317.68 31.04C317.04 30.4 315.89 30.08 314.22 30.08H302.89C301.23 30.08 300.04 30.4 299.34 31.04C298.64 31.68 298.28 32.64 298.28 33.92V45.06C298.22 47.62 299.72 48.9 302.79 48.9H302.81Z" fill="white"/>
  <path d="M263.95 61.96C260.81 61.96 258.06 61.64 255.69 61C253.39 60.36 251.18 58.98 249.07 56.87C247.79 55.59 246.51 54.31 245.23 53.03C243.95 51.75 242.67 50.47 241.39 49.19C240.37 48.1 239.53 47.27 238.89 46.69C238.25 46.05 237.61 45.63 236.97 45.44C236.39 45.18 235.56 45.06 234.47 45.06C233.06 45.06 232.23 45.19 231.97 45.44C231.71 45.69 231.59 46.56 231.59 48.03V60.99H214.12V0.22998H231.59V32.77H234.66C235.75 32.77 236.77 32.32 237.73 31.43C238.31 30.85 239.17 29.8 240.32 28.26C241.54 26.72 242.85 25.03 244.26 23.17C245.67 21.31 246.95 19.62 248.1 18.08H268.26L266.72 21.06C265.18 22.98 263.39 25.09 261.34 27.4C259.36 29.7 257.4 31.82 255.48 33.74C253.62 35.66 252.12 37 250.97 37.77C253.47 39.43 255.8 41.23 257.98 43.15C260.16 45.01 262.94 46.67 266.33 48.14C268.57 49.1 270.46 49.74 271.99 50.06C273.59 50.32 274.71 50.44 275.35 50.44L272.66 61C272.02 61.19 270.93 61.38 269.4 61.58C267.93 61.84 266.1 61.96 263.93 61.96H263.95Z" fill="white"/>
  <path d="M169.97 61C165.75 61 162.48 60.39 160.18 59.18C157.94 57.96 156.4 56.3 155.57 54.19C154.74 52.01 154.32 49.52 154.32 46.7V32.2C154.32 29.64 154.74 27.3 155.57 25.19C156.47 23.01 158.03 21.29 160.27 20.01C162.51 18.67 165.74 17.99 169.97 17.99H182.26C189.62 17.99 195.03 18.31 198.48 18.95C201.94 19.59 203.89 20.23 204.34 20.87L201.46 31.05C200.12 30.92 197.68 30.73 194.16 30.47C190.64 30.21 186.77 30.09 182.54 30.09H176.68C175.02 30.09 173.83 30.41 173.13 31.05C172.43 31.69 172.07 32.65 172.07 33.93V45.07C172.07 46.35 172.39 47.31 173.03 47.95C173.67 48.59 174.89 48.91 176.68 48.91H181.58C186.32 48.91 190.38 48.81 193.77 48.62C197.23 48.36 199.75 48.14 201.35 47.95L207.11 57.07C207.11 57.97 205.51 58.86 202.31 59.76C199.17 60.59 194.47 61.01 188.2 61.01H169.96L169.97 61Z" fill="white"/>
  <path d="M0 61V17.99H13.92L16.32 19.14C18.18 18.82 20.26 18.56 22.56 18.37C24.93 18.11 27.46 17.99 30.14 17.99H35.32C37.18 17.99 38.97 18.25 40.7 18.76C42.43 19.21 43.71 19.88 44.54 20.78C45.63 20.2 46.81 19.72 48.09 19.34C49.37 18.89 51 18.57 52.99 18.38C55.04 18.12 57.63 18 60.77 18H65.57C68.77 18 71.23 18.45 72.96 19.34C74.69 20.24 75.9 21.36 76.61 22.7C77.38 24.04 77.83 25.42 77.95 26.83C78.14 28.17 78.24 29.33 78.24 30.29V61.01H60.67V33.94C60.67 31.38 59.13 30.1 56.06 30.1H50.68C49.66 30.1 48.95 30.23 48.57 30.48C48.19 30.74 47.99 31.31 47.99 32.21V61.01H30.13V33.94C30.13 31.38 28.59 30.1 25.52 30.1H20.62C19.4 30.1 18.6 30.23 18.22 30.48C17.9 30.67 17.74 31.25 17.74 32.21V61.01H0V61Z" fill="white"/>
  <path fill-rule="evenodd" clip-rule="evenodd" d="M127.83 12.02C120.27 5.89 116.98 0 116.98 0C116.98 0 113.69 5.89 106.13 12.02C99.33 17.53 88.99 21.98 88.99 36.21C88.99 47.13 89.05 46.33 89.05 48.91C89.05 51.49 89.96 56.25 92.34 57.86C94.72 59.47 96.31 61.01 103.68 61.01C111.05 61.01 116.98 61.01 116.98 61.01C116.98 61.01 122.91 61.01 130.28 61.01C137.65 61.01 139.24 59.48 141.62 57.86C144 56.25 144.91 51.49 144.91 48.91C144.91 46.33 144.97 47.13 144.97 36.21C144.97 21.99 134.63 17.53 127.83 12.02ZM127.3 45.07C127.36 47.63 125.86 48.91 122.78 48.91H111.35C108.28 48.91 106.77 47.63 106.84 45.07V33.94C106.84 32.66 107.19 31.7 107.9 31.06C108.6 30.42 109.79 30.1 111.45 30.1H122.78C124.45 30.1 125.6 30.42 126.24 31.06C126.95 31.7 127.3 32.66 127.3 33.94V45.07Z" fill="white"/>
</svg>
